<svg xmlns="http://www.w3.org/2000/svg" style="display:none">
  <symbol id="unit-nucleosome" viewBox="-0.0000 2.9613 16.3003 16.9126">
<g
     id="layer1"
     transform="translate(-68.262148,-120.3781)">
    <g
       id="part-nucleosome">
      <g
         id="g105"
         transform="translate(0,-0.02027821)">
        <path
           style="color:#000000;font-variation-settings:normal;fill:#ffff99;fill-opacity:1;stroke:#000000;stroke-width:0.176389;stroke-linecap:round;stroke-linejoin:miter;stroke-miterlimit:4;stroke-dasharray:none;stroke-dashoffset:0;stroke-opacity:1;stop-color:#000000"
           d="m 73.601211,131.78727 a 0.31292585,0.31218479 81.770069 0 0 0.41115,0.15914 c 0.35338,-0.15652 0.77398,-0.35127 1.12424,-0.60975 0.35034,-0.25834 0.67033,-0.61334 0.64538,-1.08387 a 0.31292585,0.31218479 81.770069 0 0 -0.32761,-0.29722 0.31292585,0.31218479 81.770069 0 0 -0.2965,0.32903 c 0.008,0.15619 -0.11533,0.34316 -0.39153,0.547 -0.27623,0.20381 -0.66487,0.39046 -1.00713,0.54212 a 0.31292585,0.31218479 81.770069 0 0 -0.15832,0.41319 z"
           id="path52" />
        <path
           style="color:#000000;font-variation-settings:normal;fill:#ffff99;fill-opacity:1;stroke:#000000;stroke-width:0.176389;stroke-linecap:round;stroke-linejoin:round;stroke-miterlimit:4;stroke-dasharray:none;stroke-dashoffset:0;stroke-opacity:1;stop-color:#000000"
           d="m 75.267991,125.37325 a 0.31292585,0.31218479 0 0 0 -0.15903,0.41108 c 0.15663,0.35341 0.35147,0.77409 0.61,1.12447 0.25851,0.3504 0.61353,0.67055 1.08407,0.64582 a 0.31292585,0.31218479 0 0 0 0.29716,-0.32745 0.31292585,0.31218479 0 0 0 -0.32944,-0.29627 c -0.1562,0.008 -0.34321,-0.11545 -0.54708,-0.39181 -0.20388,-0.27632 -0.39064,-0.665 -0.54238,-1.00731 a 0.31292585,0.31218479 0 0 0 -0.41323,-0.15852 z"
           id="path53" />
        <path
           style="fill:none;fill-rule:evenodd;stroke:#000000;stroke-width:0.529167;stroke-linecap:round;stroke-linejoin:round;stroke-miterlimit:4;stroke-dasharray:none"
           d="m 81.450061,136.86459 c -4.1869,0.28076 -6.4681,-2.72327 -6.07942,-4.53255 0.66798,-3.10945 3.08749,-5.39634 4.41258,-5.39633"
           id="path54" />
        <path
           id="path55"
           style="fill:#ffff99;fill-rule:evenodd;stroke:#000000;stroke-width:0.176389;stroke-linecap:round;stroke-linejoin:round;stroke-miterlimit:4;stroke-dasharray:none"
           d="m 73.313421,131.37244 c 0.56447,-1.34088 1.38982,-2.55481 2.2679,-3.43352 0.87808,-0.87871 1.80891,-1.42221 2.58435,-1.42221 0,0 -0.92912,1.77647 -1.27103,2.58881 -0.34129,0.81088 -0.77311,2.26692 -0.77311,2.26692 0,0 -1.03562,-0.11497 -1.50364,-0.11497 -0.46802,0 -1.30447,0.11497 -1.30447,0.11497 z m 4.11051,0.978 2.04414,-4.85573 -1.3024,-0.978 c 0,0 -0.92912,1.77647 -1.27103,2.58881 -0.34129,0.81088 -0.77311,2.26692 -0.77311,2.26692 z m 0,0 h -2.80811 l -1.3024,-0.978 c 0,0 0.83645,-0.11497 1.30447,-0.11497 0.46802,0 1.50364,0.11497 1.50364,0.11497 z" />
        <path
           id="path56"
           style="font-variation-settings:normal;fill:#fb9a99;fill-opacity:1;stroke:#000000;stroke-width:0.176389;stroke-linecap:round;stroke-linejoin:round;stroke-miterlimit:4;stroke-dasharray:none;stroke-dashoffset:0;stroke-opacity:1;stop-color:#000000"
           d="m 78.874841,126.71388 1.33637,0.99914 c 0,0 0.13113,0.10185 0.18926,0.16328 0.23252,0.24571 0.38539,0.60127 0.45452,1.04062 0.13825,0.87872 -0.0585,2.09265 -0.62295,3.43352 l -1.3024,-0.978 c 0.56447,-1.34088 0.7612,-2.55481 0.62295,-3.43352 -0.13825,-0.87871 -0.61148,-1.42221 -1.38692,-1.42221 m 1.38692,1.42221 c -0.13825,-0.87871 -0.61148,-1.42221 -1.38692,-1.42221 0,0 -0.92912,1.77647 -1.27103,2.58881 -0.34129,0.81088 -0.77311,2.26692 -0.77311,2.26692 0,0 0.83646,-0.11497 1.30447,-0.11497 0.46802,0 1.50364,0.11497 1.50364,0.11497 0.56447,-1.34088 0.7612,-2.55481 0.62295,-3.43352 z m -0.62295,3.43352 c 0,0 -1.03562,-0.11497 -1.50364,-0.11497 -0.46801,0 -1.30447,0.11497 -1.30447,0.11497 l 1.3024,0.978 h 2.80811 z" />
        <path
           id="path57"
           style="fill:#a6cee3;fill-rule:evenodd;stroke:#000000;stroke-width:0.176389;stroke-linecap:round;stroke-linejoin:round;stroke-miterlimit:4;stroke-dasharray:none"
           d="m 76.121531,131.37243 c 0,0 -1.03562,-0.11497 -1.50363,-0.11497 -0.46802,0 -1.30448,0.11497 -1.30448,0.11497 -0.56447,1.34087 -0.76119,2.5548 -0.62294,3.43352 0.13825,0.87871 0.61148,1.42221 1.38692,1.42221 0,0 0.43182,-1.45604 0.77311,-2.26691 0.3419,-0.81234 1.27102,-2.58882 1.27102,-2.58882 z m -0.74174,5.83374 2.04414,-4.85573 -1.3024,-0.97801 c 0,0 -0.92912,1.77648 -1.27102,2.58882 -0.34129,0.81087 -0.77311,2.26691 -0.77311,2.26691 z m -2.56645,-1.95107 c 0.13825,0.87872 1.79102,1.95107 2.56645,1.95107 l -1.30239,-0.97801 c -0.77544,0 -1.24867,-0.5435 -1.38692,-1.42221" />
        <path
           id="path58"
           style="fill:#b2df8a;fill-rule:evenodd;stroke:#000000;stroke-width:0.176389;stroke-linecap:round;stroke-linejoin:round;stroke-miterlimit:4;stroke-dasharray:none"
           d="m 80.232041,132.35044 c -0.56447,1.34088 -1.38981,2.5548 -2.2679,3.43352 -0.87808,0.87872 -1.80891,1.42221 -2.58435,1.42221 l -1.3024,-0.978 c 0.77544,0 1.70627,-0.5435 2.58435,-1.42222 0.87809,-0.87871 1.70343,-2.09264 2.2679,-3.43351 z m -1.3024,-0.978 c -0.56447,1.34087 -1.38981,2.5548 -2.2679,3.43351 -0.87808,0.87872 -1.80891,1.42222 -2.58435,1.42222 0,0 0.43183,-1.45604 0.77312,-2.26691 0.3419,-0.81235 1.27102,-2.58882 1.27102,-2.58882 0,0 0.83646,-0.11497 1.30447,-0.11497 0.46802,0 1.50364,0.11497 1.50364,0.11497 z" />
        <path
           style="color:#000000;fill:#a6cee3;stroke:#000000;stroke-width:0.176389;stroke-linecap:round;stroke-linejoin:round;stroke-miterlimit:4;stroke-dasharray:none"
           d="m 73.915951,136.47913 a 0.31292585,0.31218479 0 0 0 -0.3716,0.24024 c -0.0446,0.20807 -0.20161,0.33628 -0.56351,0.47316 -0.3619,0.13688 -0.881,0.23899 -1.44361,0.38047 -1.12523,0.28295 -2.47555,0.75421 -3.15615,2.16334 a 0.31292585,0.31218479 0 0 0 0.14668,0.41706 0.31292585,0.31218479 0 0 0 0.41805,-0.14633 c 0.56502,-1.16983 1.66067,-1.55552 2.74421,-1.82799 0.54177,-0.13624 1.06833,-0.23581 1.51207,-0.40365 0.44374,-0.16783 0.85205,-0.44667 0.95467,-0.92558 a 0.31292585,0.31218479 0 0 0 -0.24081,-0.37072 z"
           id="path59" />
        <path
           style="fill:none;fill-rule:evenodd;stroke:#000000;stroke-width:0.529167;stroke-linecap:round;stroke-linejoin:round;stroke-miterlimit:4;stroke-dasharray:none"
           d="m 79.783221,126.93571 c 1.34435,0 1.15078,2.16989 -0.43237,4.84658 v 0 c -1.58314,2.6767 -3.95636,4.84658 -5.30072,4.84659 -0.43034,1e-5 -1.08679,-0.22041 -1.20682,-0.61057"
           id="path62" />
        <path
           style="fill:none;fill-rule:evenodd;stroke:#7d7d7d;stroke-width:0.264583"
           d="m 77.363771,130.7911 v 0"
           id="path63" />
        <path
           style="color:#000000;fill:#b2df8a;stroke:#000000;stroke-width:0.176389;stroke-linecap:round;stroke-linejoin:round;stroke-miterlimit:4;stroke-dasharray:none"
           d="m 69.100091,135.56362 a 0.31292585,0.31218479 0 0 0 0.0338,0.44037 0.31292585,0.31218479 0 0 0 0.4421,-0.0348 c 0.57246,-0.66894 0.99885,-0.85048 1.42657,-1.10553 0.42771,-0.25505 0.83911,-0.6222 1.10035,-1.45967 a 0.31292585,0.31218479 0 0 0 -0.20653,-0.3909 0.31292585,0.31218479 0 0 0 -0.39114,0.20503 c -0.22779,0.73027 -0.44409,0.88218 -0.8241,1.10881 -0.38004,0.22661 -0.94141,0.48922 -1.58105,1.23666 z"
           id="path64" />
        <path
           style="fill:none;fill-rule:evenodd;stroke:#000000;stroke-width:0.529167;stroke-linecap:round;stroke-miterlimit:4;stroke-dasharray:none"
           d="m 72.843311,136.01831 c -0.39636,-0.933 -0.21589,-2.6771 0.58423,-4.67472 1.19374,-2.98032 3.4577,-5.50705 4.88031,-5.50704"
           id="path65" />
        <path
           style="color:#000000;fill:#b2df8a;stroke:#000000;stroke-width:0.176389;stroke-linecap:round;stroke-linejoin:round;stroke-miterlimit:4;stroke-dasharray:none"
           d="m 82.050181,133.3303 c -1.82576,0.50479 -1.82763,0.1727 -2.95715,-0.11699 -0.16743,-0.0432 -0.33825,0.0573 -0.38138,0.22438 -0.0432,0.16741 0.0582,0.33799 0.22614,0.38047 1.22021,0.31296 1.39432,0.63587 3.27986,0.11456 0.16683,-0.0457 0.26484,-0.21776 0.2188,-0.38413 -0.0458,-0.16706 -0.21911,-0.26501 -0.38627,-0.21829 z"
           id="path68" />
        <path
           style="color:#000000;fill:#fb9a99;stroke:#000000;stroke-width:0.176389;stroke-linecap:round;stroke-linejoin:round;stroke-miterlimit:4;stroke-dasharray:none"
           d="m 72.525831,126.24754 c -0.29908,-0.25559 -0.58614,-0.59841 -0.82506,-1.08914 a 0.31292585,0.31218479 0 0 1 0.14391,-0.41724 0.31292585,0.31218479 0 0 1 0.41909,0.14442 c 0.41069,0.84362 0.8845,1.09619 1.43326,1.36541 0.54877,0.26921 1.19892,0.55115 1.63462,1.35658 a 0.31292585,0.31218479 0 0 1 -0.12659,0.42232 0.31292585,0.31218479 0 0 1 -0.42419,-0.12542 c -0.34593,-0.63948 -0.78834,-0.81324 -1.35926,-1.09329 -0.28545,-0.14001 -0.59672,-0.30804 -0.8958,-0.56363 z"
           id="path69" />
        <path
           id="path70"
           style="fill:#fb9a99;fill-rule:evenodd;stroke:#000000;stroke-width:0.176389;stroke-linecap:round;stroke-linejoin:round;stroke-miterlimit:4;stroke-dasharray:none"
           d="m 72.011021,130.39443 c 0.56447,-1.34088 1.38981,-2.5548 2.2679,-3.43352 0.87809,-0.87871 1.80891,-1.42221 2.58435,-1.42221 0,0 -0.92912,1.77648 -1.27103,2.58882 -0.34129,0.81087 -0.77311,2.26691 -0.77311,2.26691 0,0 -1.03562,-0.11499 -1.50364,-0.11499 -0.46801,0 -1.30447,0.11499 -1.30447,0.11499 z m 4.11051,0.978 2.04414,-4.85572 -1.3024,-0.97801 c 0,0 -0.92912,1.77648 -1.27103,2.58882 -0.34129,0.81087 -0.77311,2.26691 -0.77311,2.26691 z m 0,0 h -2.80811 l -1.3024,-0.978 c 0,0 0.83646,-0.11499 1.30447,-0.11499 0.46802,0 1.50364,0.11499 1.50364,0.11499 z" />
        <path
           id="path71"
           style="font-variation-settings:normal;fill:#ffff99;fill-opacity:1;stroke:#000000;stroke-width:0.176389;stroke-linecap:round;stroke-linejoin:round;stroke-miterlimit:4;stroke-dasharray:none;stroke-dashoffset:0;stroke-opacity:1;stop-color:#000000"
           d="m 77.572441,125.73587 1.33637,0.99914 c 0,0 0.13115,0.10185 0.18925,0.16329 0.2325,0.2457 0.38538,0.60126 0.45451,1.04062 0.13824,0.87871 -0.0585,2.09264 -0.62295,3.43352 l -1.30239,-0.97801 c 0.56447,-1.34087 0.7612,-2.5548 0.62294,-3.43351 -0.13824,-0.87872 -0.61148,-1.42222 -1.38691,-1.42222 m 1.38691,1.42222 c -0.13824,-0.87872 -0.61148,-1.42222 -1.38691,-1.42222 0,0 -0.92913,1.77648 -1.27103,2.58882 -0.3413,0.81087 -0.77312,2.26691 -0.77312,2.26691 0,0 0.83646,-0.11498 1.30448,-0.11498 0.46802,0 1.50364,0.11498 1.50364,0.11498 0.56447,-1.34087 0.7612,-2.5548 0.62294,-3.43351 z m -0.62294,3.43351 c 0,0 -1.03562,-0.11498 -1.50364,-0.11498 -0.46802,0 -1.30448,0.11498 -1.30448,0.11498 l 1.3024,0.97801 h 2.80811 z" />
        <path
           id="path72"
           style="fill:#b2df8a;fill-rule:evenodd;stroke:#000000;stroke-width:0.176389;stroke-linecap:round;stroke-linejoin:round;stroke-miterlimit:4;stroke-dasharray:none"
           d="m 74.819131,130.39442 c 0,0 -1.03562,-0.11498 -1.50363,-0.11498 -0.46802,0 -1.30448,0.11498 -1.30448,0.11498 -0.56447,1.34088 -0.76119,2.55481 -0.62294,3.43352 0.13824,0.87871 0.61148,1.42221 1.38692,1.42221 0,0 0.43182,-1.45604 0.77311,-2.26691 0.34191,-0.81234 1.27102,-2.58882 1.27102,-2.58882 z m -0.74174,5.83374 2.04414,-4.85573 -1.3024,-0.97801 c 0,0 -0.92912,1.77648 -1.27102,2.58882 -0.3413,0.81087 -0.77311,2.26691 -0.77311,2.26691 z m -2.56645,-1.95106 c 0.13825,0.87872 1.79101,1.95106 2.56645,1.95106 l -1.30239,-0.97801 c -0.77544,0 -1.24867,-0.5435 -1.38692,-1.42221" />
        <path
           id="path73"
           style="fill:#a6cee3;fill-rule:evenodd;stroke:#000000;stroke-width:0.176389;stroke-linecap:round;stroke-linejoin:round;stroke-miterlimit:4;stroke-dasharray:none"
           d="m 78.929641,131.37243 c -0.56447,1.34088 -1.38982,2.5548 -2.2679,3.43352 -0.87808,0.87872 -1.80891,1.42221 -2.58435,1.42221 l -1.3024,-0.978 c 0.77544,0 1.70627,-0.5435 2.58435,-1.42221 0.87809,-0.87872 1.70343,-2.09265 2.2679,-3.43352 z m -1.3024,-0.978 c -0.56447,1.34087 -1.38981,2.5548 -2.2679,3.43352 -0.87808,0.87871 -1.80891,1.42221 -2.58435,1.42221 0,0 0.43183,-1.45604 0.77312,-2.26691 0.34191,-0.81235 1.27102,-2.58882 1.27102,-2.58882 0,0 0.83646,-0.11499 1.30447,-0.11499 0.46802,0 1.50364,0.11499 1.50364,0.11499 z" />
        <path
           style="color:#000000;fill:#a6cee3;stroke:#000000;stroke-width:0.176389;stroke-linecap:round;stroke-linejoin:round;stroke-miterlimit:4;stroke-dasharray:none"
           d="m 74.394281,135.20083 a 0.31292585,0.31218479 0 0 0 -0.15769,0.41218 c 0.21257,0.47489 0.64163,0.76208 1.11969,0.96826 0.47805,0.20618 1.02722,0.34566 1.57929,0.5134 1.10415,0.3355 2.18232,0.75778 2.74667,1.86945 a 0.31292585,0.31218479 0 0 0 0.42049,0.1378 0.31292585,0.31218479 0 0 0 0.1369,-0.4195 c -0.68128,-1.34202 -1.98591,-1.83889 -3.12192,-2.18407 -0.56801,-0.17259 -1.10332,-0.31341 -1.51329,-0.49023 -0.40998,-0.17682 -0.67402,-0.37526 -0.79699,-0.64998 a 0.31292585,0.31218479 0 0 0 -0.41315,-0.15731 z"
           id="path74" />
        <path
           style="color:#000000;fill:#fb9a99;stroke:#000000;stroke-width:0.176389;stroke-linecap:round;stroke-linejoin:round;stroke-miterlimit:4;stroke-dasharray:none"
           d="m 84.086101,128.47412 c -0.96225,-0.23959 -1.58673,-0.40843 -2.13792,-0.45852 -0.55119,-0.0501 -1.04417,0.007 -1.80788,0.23902 a 0.31292585,0.31218479 0 0 1 -0.39116,-0.20731 0.31292585,0.31218479 0 0 1 0.2078,-0.39023 c 0.81066,-0.24636 1.41555,-0.32083 2.04747,-0.26341 0.63192,0.0574 1.27709,0.23629 2.23326,0.47438 a 0.31292585,0.31218479 0 0 1 0.22736,0.37803 0.31292585,0.31218479 0 0 1 -0.37893,0.22804 z"
           id="path75" />
        <path
           id="path79"
           style="fill:none;fill-rule:evenodd;stroke:#000000;stroke-width:0.529167;stroke-linecap:round;stroke-linejoin:round;stroke-miterlimit:4;stroke-dasharray:none"
           d="m 78.307731,125.83655 c 1.34435,1e-5 1.10353,2.16715 0.14558,3.7868 -1.6628,3.12083 -5.47767,7.09826 -8.92573,7.24124" />
        <path
           style="color:#000000;fill:#ffff99;stroke:#000000;stroke-width:0.176389;stroke-linecap:round;stroke-linejoin:round;stroke-miterlimit:4;stroke-dasharray:none"
           d="m 80.605851,125.60339 c 0.5075,-0.46963 0.92913,-1.01235 1.29791,-1.69624 a 0.31292585,0.31218479 0 0 0 -0.12734,-0.42249 0.31292585,0.31218479 0 0 0 -0.42349,0.12705 c -0.68185,1.26449 -1.49152,1.94826 -2.86193,2.70492 a 0.31292585,0.31218479 0 0 0 -0.12246,0.42379 0.31292585,0.31218479 0 0 0 0.42573,0.12136 c 0.71099,-0.39255 1.30408,-0.78875 1.81158,-1.25839 z"
           id="path80" />
        <path
           style="color:#000000;font-variation-settings:normal;fill:#ffff99;fill-opacity:1;stroke:#000000;stroke-width:0.176389;stroke-linecap:round;stroke-linejoin:round;stroke-miterlimit:4;stroke-dasharray:none;stroke-dashoffset:0;stroke-opacity:1;stop-color:#000000"
           d="m 73.856361,134.24279 c -0.16584,-0.0468 -0.23597,-0.2451 -0.18976,-0.41073 0.0522,-0.18607 0.64453,-0.9648 1.01902,-1.80704 0.3745,-0.84224 0.50454,-1.72138 0.60736,-1.91322 0.20563,-0.38367 0.51109,-0.7512 0.98034,-0.79388 0.17218,-0.0162 0.32492,0.10992 0.34104,0.2817 0.0163,0.17221 -0.11091,0.32478 -0.28359,0.34023 -0.15577,0.0142 -0.32313,0.16327 -0.48528,0.46584 -0.0811,0.15129 -0.19941,1.00195 -0.56722,1.82439 -0.36781,0.82243 -0.9585,1.59004 -1.00904,1.77026 -0.0469,0.16607 -0.24645,0.28933 -0.41287,0.24245 z"
           id="path81" />
      </g>
    </g>
  </g>
  </symbol>
  <symbol id="unit-dimer-h2a-h2b" viewBox="44.7551 -0.0000 10.4476 10.9826">
<g
     id="layer1"
     transform="translate(-68.262148,-120.3781)">
    <g
       id="g133"
       transform="translate(23.656353,0.0233327)">
      <g
         id="part-dimer-h2a-h2b">
        <g
           id="g134">
          <g
             id="part-h2b">
            <path
               style="color:#000000;fill:#fb9a99;stroke:#000000;stroke-width:0.176389;stroke-linecap:round;stroke-linejoin:round;stroke-miterlimit:4;stroke-dasharray:none"
               d="m 90.305404,123.24266 c -0.29908,-0.25559 -0.58614,-0.59841 -0.82506,-1.08914 a 0.31292585,0.31218479 0 0 1 0.14391,-0.41724 0.31292585,0.31218479 0 0 1 0.41909,0.14442 c 0.41069,0.84362 0.8845,1.09619 1.43326,1.36541 0.54877,0.26921 1.19892,0.55115 1.63462,1.35658 a 0.31292585,0.31218479 0 0 1 -0.12659,0.42232 0.31292585,0.31218479 0 0 1 -0.42419,-0.12542 c -0.34593,-0.63948 -0.78834,-0.81324 -1.35926,-1.09329 -0.28545,-0.14001 -0.59672,-0.30804 -0.8958,-0.56363 z"
               id="path124" />
            <path
               id="path125"
               style="fill:#fb9a99;fill-rule:evenodd;stroke:#000000;stroke-width:0.176389;stroke-linecap:round;stroke-linejoin:round;stroke-miterlimit:4;stroke-dasharray:none"
               d="m 89.790594,127.38955 c 0.56447,-1.34088 1.38981,-2.5548 2.2679,-3.43352 0.87809,-0.87871 1.80891,-1.42221 2.58435,-1.42221 0,0 -0.92912,1.77648 -1.27103,2.58882 -0.34129,0.81087 -0.77311,2.26691 -0.77311,2.26691 0,0 -1.03562,-0.11499 -1.50364,-0.11499 -0.46801,0 -1.30447,0.11499 -1.30447,0.11499 z m 4.11051,0.978 2.04414,-4.85572 -1.3024,-0.97801 c 0,0 -0.92912,1.77648 -1.27103,2.58882 -0.34129,0.81087 -0.77311,2.26691 -0.77311,2.26691 z m 0,0 h -2.80811 l -1.3024,-0.978 c 0,0 0.83646,-0.11499 1.30447,-0.11499 0.46802,0 1.50364,0.11499 1.50364,0.11499 z" />
          </g>
          <g
             id="part-h2a">
            <path
               id="path126"
               style="font-variation-settings:normal;fill:#ffff99;fill-opacity:1;stroke:#000000;stroke-width:0.176389;stroke-linecap:round;stroke-linejoin:round;stroke-miterlimit:4;stroke-dasharray:none;stroke-dashoffset:0;stroke-opacity:1;stop-color:#000000"
               d="m 95.352014,122.73099 1.33637,0.99914 c 0,0 0.13115,0.10185 0.18925,0.16329 0.2325,0.2457 0.38538,0.60126 0.45451,1.04062 0.13824,0.87871 -0.0585,2.09264 -0.62295,3.43352 l -1.30239,-0.97801 c 0.56447,-1.34087 0.7612,-2.5548 0.62294,-3.43351 -0.13824,-0.87872 -0.61148,-1.42222 -1.38691,-1.42222 m 1.38691,1.42222 c -0.13824,-0.87872 -0.61148,-1.42222 -1.38691,-1.42222 0,0 -0.92913,1.77648 -1.27103,2.58882 -0.3413,0.81087 -0.77312,2.26691 -0.77312,2.26691 0,0 0.83646,-0.11498 1.30448,-0.11498 0.46802,0 1.50364,0.11498 1.50364,0.11498 0.56447,-1.34087 0.7612,-2.5548 0.62294,-3.43351 z m -0.62294,3.43351 c 0,0 -1.03562,-0.11498 -1.50364,-0.11498 -0.46802,0 -1.30448,0.11498 -1.30448,0.11498 l 1.3024,0.97801 h 2.80811 z" />
            <path
               style="color:#000000;fill:#ffff99;stroke:#000000;stroke-width:0.176389;stroke-linecap:round;stroke-linejoin:round;stroke-miterlimit:4;stroke-dasharray:none"
               d="m 98.385424,122.59851 c 0.5075,-0.46963 0.92913,-1.01235 1.29791,-1.69624 a 0.31292585,0.31218479 0 0 0 -0.12734,-0.42249 0.31292585,0.31218479 0 0 0 -0.42349,0.12705 c -0.68185,1.26449 -1.49152,1.94826 -2.86193,2.70492 a 0.31292585,0.31218479 0 0 0 -0.12246,0.42379 0.31292585,0.31218479 0 0 0 0.42573,0.12136 c 0.71099,-0.39255 1.30408,-0.78875 1.81158,-1.25839 z"
               id="path132" />
            <path
               style="color:#000000;font-variation-settings:normal;fill:#ffff99;fill-opacity:1;stroke:#000000;stroke-width:0.176389;stroke-linecap:round;stroke-linejoin:round;stroke-miterlimit:4;stroke-dasharray:none;stroke-dashoffset:0;stroke-opacity:1;stop-color:#000000"
               d="m 91.635934,131.23791 c -0.16584,-0.0468 -0.23597,-0.2451 -0.18976,-0.41073 0.0522,-0.18607 0.64453,-0.9648 1.01902,-1.80704 0.3745,-0.84224 0.50454,-1.72138 0.60736,-1.91322 0.20563,-0.38367 0.51109,-0.7512 0.98034,-0.79388 0.17218,-0.0162 0.32492,0.10992 0.34104,0.2817 0.0163,0.17221 -0.11091,0.32478 -0.28359,0.34023 -0.15577,0.0142 -0.32313,0.16327 -0.48528,0.46584 -0.0811,0.15129 -0.19941,1.00195 -0.56722,1.82439 -0.36781,0.82243 -0.9585,1.59004 -1.00904,1.77026 -0.0469,0.16607 -0.24645,0.28933 -0.41287,0.24245 z"
               id="path133" />
          </g>
        </g>
      </g>
    </g>
  </g>
  </symbol>
  <symbol id="unit-h2a" viewBox="46.7381 -0.0000 8.4646 10.9826">
<g
     id="layer1"
     transform="translate(-68.262148,-120.3781)">
    <g
       id="g133"
       transform="translate(23.656353,0.0233327)">
      <g
         id="part-dimer-h2a-h2b">
        <g
           id="g134">
          <g
             id="part-h2a">
            <path
               id="path126"
               style="font-variation-settings:normal;fill:#ffff99;fill-opacity:1;stroke:#000000;stroke-width:0.176389;stroke-linecap:round;stroke-linejoin:round;stroke-miterlimit:4;stroke-dasharray:none;stroke-dashoffset:0;stroke-opacity:1;stop-color:#000000"
               d="m 95.352014,122.73099 1.33637,0.99914 c 0,0 0.13115,0.10185 0.18925,0.16329 0.2325,0.2457 0.38538,0.60126 0.45451,1.04062 0.13824,0.87871 -0.0585,2.09264 -0.62295,3.43352 l -1.30239,-0.97801 c 0.56447,-1.34087 0.7612,-2.5548 0.62294,-3.43351 -0.13824,-0.87872 -0.61148,-1.42222 -1.38691,-1.42222 m 1.38691,1.42222 c -0.13824,-0.87872 -0.61148,-1.42222 -1.38691,-1.42222 0,0 -0.92913,1.77648 -1.27103,2.58882 -0.3413,0.81087 -0.77312,2.26691 -0.77312,2.26691 0,0 0.83646,-0.11498 1.30448,-0.11498 0.46802,0 1.50364,0.11498 1.50364,0.11498 0.56447,-1.34087 0.7612,-2.5548 0.62294,-3.43351 z m -0.62294,3.43351 c 0,0 -1.03562,-0.11498 -1.50364,-0.11498 -0.46802,0 -1.30448,0.11498 -1.30448,0.11498 l 1.3024,0.97801 h 2.80811 z" />
            <path
               style="color:#000000;fill:#ffff99;stroke:#000000;stroke-width:0.176389;stroke-linecap:round;stroke-linejoin:round;stroke-miterlimit:4;stroke-dasharray:none"
               d="m 98.385424,122.59851 c 0.5075,-0.46963 0.92913,-1.01235 1.29791,-1.69624 a 0.31292585,0.31218479 0 0 0 -0.12734,-0.42249 0.31292585,0.31218479 0 0 0 -0.42349,0.12705 c -0.68185,1.26449 -1.49152,1.94826 -2.86193,2.70492 a 0.31292585,0.31218479 0 0 0 -0.12246,0.42379 0.31292585,0.31218479 0 0 0 0.42573,0.12136 c 0.71099,-0.39255 1.30408,-0.78875 1.81158,-1.25839 z"
               id="path132" />
            <path
               style="color:#000000;font-variation-settings:normal;fill:#ffff99;fill-opacity:1;stroke:#000000;stroke-width:0.176389;stroke-linecap:round;stroke-linejoin:round;stroke-miterlimit:4;stroke-dasharray:none;stroke-dashoffset:0;stroke-opacity:1;stop-color:#000000"
               d="m 91.635934,131.23791 c -0.16584,-0.0468 -0.23597,-0.2451 -0.18976,-0.41073 0.0522,-0.18607 0.64453,-0.9648 1.01902,-1.80704 0.3745,-0.84224 0.50454,-1.72138 0.60736,-1.91322 0.20563,-0.38367 0.51109,-0.7512 0.98034,-0.79388 0.17218,-0.0162 0.32492,0.10992 0.34104,0.2817 0.0163,0.17221 -0.11091,0.32478 -0.28359,0.34023 -0.15577,0.0142 -0.32313,0.16327 -0.48528,0.46584 -0.0811,0.15129 -0.19941,1.00195 -0.56722,1.82439 -0.36781,0.82243 -0.9585,1.59004 -1.00904,1.77026 -0.0469,0.16607 -0.24645,0.28933 -0.41287,0.24245 z"
               id="path133" />
          </g>
        </g>
      </g>
    </g>
  </g>
  </symbol>
  <symbol id="unit-h2b" viewBox="44.7551 1.2618 6.6726 6.8391">
<g
     id="layer1"
     transform="translate(-68.262148,-120.3781)">
    <g
       id="g133"
       transform="translate(23.656353,0.0233327)">
      <g
         id="part-dimer-h2a-h2b">
        <g
           id="g134">
          <g
             id="part-h2b">
            <path
               style="color:#000000;fill:#fb9a99;stroke:#000000;stroke-width:0.176389;stroke-linecap:round;stroke-linejoin:round;stroke-miterlimit:4;stroke-dasharray:none"
               d="m 90.305404,123.24266 c -0.29908,-0.25559 -0.58614,-0.59841 -0.82506,-1.08914 a 0.31292585,0.31218479 0 0 1 0.14391,-0.41724 0.31292585,0.31218479 0 0 1 0.41909,0.14442 c 0.41069,0.84362 0.8845,1.09619 1.43326,1.36541 0.54877,0.26921 1.19892,0.55115 1.63462,1.35658 a 0.31292585,0.31218479 0 0 1 -0.12659,0.42232 0.31292585,0.31218479 0 0 1 -0.42419,-0.12542 c -0.34593,-0.63948 -0.78834,-0.81324 -1.35926,-1.09329 -0.28545,-0.14001 -0.59672,-0.30804 -0.8958,-0.56363 z"
               id="path124" />
            <path
               id="path125"
               style="fill:#fb9a99;fill-rule:evenodd;stroke:#000000;stroke-width:0.176389;stroke-linecap:round;stroke-linejoin:round;stroke-miterlimit:4;stroke-dasharray:none"
               d="m 89.790594,127.38955 c 0.56447,-1.34088 1.38981,-2.5548 2.2679,-3.43352 0.87809,-0.87871 1.80891,-1.42221 2.58435,-1.42221 0,0 -0.92912,1.77648 -1.27103,2.58882 -0.34129,0.81087 -0.77311,2.26691 -0.77311,2.26691 0,0 -1.03562,-0.11499 -1.50364,-0.11499 -0.46801,0 -1.30447,0.11499 -1.30447,0.11499 z m 4.11051,0.978 2.04414,-4.85572 -1.3024,-0.97801 c 0,0 -0.92912,1.77648 -1.27103,2.58882 -0.34129,0.81087 -0.77311,2.26691 -0.77311,2.26691 z m 0,0 h -2.80811 l -1.3024,-0.978 c 0,0 0.83646,-0.11499 1.30447,-0.11499 0.46802,0 1.50364,0.11499 1.50364,0.11499 z" />
          </g>
        </g>
      </g>
    </g>
  </g>
  </symbol>
  <symbol id="unit-tetramer" viewBox="41.4359 8.8867 14.2737 11.2010">
<g
     id="layer1"
     transform="translate(-68.262148,-120.3781)">
    <g
       id="g133"
       transform="translate(23.656353,0.0233327)">
      <g
         id="part-tetramer">
        <g
           id="part-dimer-h3-h4">
          <path
             id="path113"
             style="fill:#a6cee3;fill-rule:evenodd;stroke:#000000;stroke-width:0.176389;stroke-linecap:round;stroke-linejoin:round;stroke-miterlimit:4;stroke-dasharray:none"
             d="m 93.901104,131.54257 c 0,0 -1.03562,-0.11497 -1.50363,-0.11497 -0.46802,0 -1.30448,0.11497 -1.30448,0.11497 -0.56447,1.34087 -0.76119,2.5548 -0.62294,3.43352 0.13825,0.87871 0.61148,1.42221 1.38692,1.42221 0,0 0.43182,-1.45604 0.77311,-2.26691 0.3419,-0.81234 1.27102,-2.58882 1.27102,-2.58882 z m -0.74174,5.83374 2.04414,-4.85573 -1.3024,-0.97801 c 0,0 -0.92912,1.77648 -1.27102,2.58882 -0.34129,0.81087 -0.77311,2.26691 -0.77311,2.26691 z m -2.56645,-1.95107 c 0.13825,0.87872 1.79102,1.95107 2.56645,1.95107 l -1.30239,-0.97801 c -0.77544,0 -1.24867,-0.5435 -1.38692,-1.42221" />
          <g
             id="part-h4">
            <path
               id="path117"
               style="fill:#b2df8a;fill-rule:evenodd;stroke:#000000;stroke-width:0.176389;stroke-linecap:round;stroke-linejoin:round;stroke-miterlimit:4;stroke-dasharray:none"
               d="m 98.011614,132.52058 c -0.56447,1.34088 -1.38981,2.5548 -2.2679,3.43352 -0.87808,0.87872 -1.80891,1.42221 -2.58435,1.42221 l -1.3024,-0.978 c 0.77544,0 1.70627,-0.5435 2.58435,-1.42222 0.87809,-0.87871 1.70343,-2.09264 2.2679,-3.43351 z m -1.3024,-0.978 c -0.56447,1.34087 -1.38981,2.5548 -2.2679,3.43351 -0.87808,0.87872 -1.80891,1.42222 -2.58435,1.42222 0,0 0.43183,-1.45604 0.77312,-2.26691 0.3419,-0.81235 1.27102,-2.58882 1.27102,-2.58882 0,0 0.83646,-0.11497 1.30447,-0.11497 0.46802,0 1.50364,0.11497 1.50364,0.11497 z" />
          </g>
          <path
             style="color:#000000;fill:#a6cee3;stroke:#000000;stroke-width:0.176389;stroke-linecap:round;stroke-linejoin:round;stroke-miterlimit:4;stroke-dasharray:none"
             d="m 91.695524,136.64927 a 0.31292585,0.31218479 0 0 0 -0.3716,0.24024 c -0.0446,0.20807 -0.20161,0.33628 -0.56351,0.47316 -0.3619,0.13688 -0.881,0.23899 -1.44361,0.38047 -1.12523,0.28295 -2.47555,0.75421 -3.15615,2.16334 a 0.31292585,0.31218479 0 0 0 0.14668,0.41706 0.31292585,0.31218479 0 0 0 0.41805,-0.14633 c 0.56502,-1.16983 1.66067,-1.55552 2.74421,-1.82799 0.54177,-0.13624 1.06833,-0.23581 1.51207,-0.40365 0.44374,-0.16783 0.85205,-0.44667 0.95467,-0.92558 a 0.31292585,0.31218479 0 0 0 -0.24081,-0.37072 z"
             id="path118" />
          <path
             style="fill:none;fill-rule:evenodd;stroke:#7d7d7d;stroke-width:0.264583"
             d="m 98.318346,129.37373 v 0"
             id="path120" />
          <path
             style="color:#000000;fill:#b2df8a;stroke:#000000;stroke-width:0.176389;stroke-linecap:round;stroke-linejoin:round;stroke-miterlimit:4;stroke-dasharray:none"
             d="m 86.879664,135.73376 a 0.31292585,0.31218479 0 0 0 0.0338,0.44037 0.31292585,0.31218479 0 0 0 0.4421,-0.0348 c 0.57246,-0.66894 0.99885,-0.85048 1.42657,-1.10553 0.42771,-0.25505 0.83911,-0.6222 1.10035,-1.45967 a 0.31292585,0.31218479 0 0 0 -0.20653,-0.3909 0.31292585,0.31218479 0 0 0 -0.39114,0.20503 c -0.22779,0.73027 -0.44409,0.88218 -0.8241,1.10881 -0.38004,0.22661 -0.94141,0.48922 -1.58105,1.23666 z"
             id="path121" />
        </g>
        <path
           style="color:#000000;fill:#b2df8a;stroke:#000000;stroke-width:0.176389;stroke-linecap:round;stroke-linejoin:round;stroke-miterlimit:4;stroke-dasharray:none"
           d="m 99.829754,133.50044 c -1.82576,0.50479 -1.82763,0.1727 -2.95715,-0.11699 -0.16743,-0.0432 -0.33825,0.0573 -0.38138,0.22438 -0.0432,0.16741 0.0582,0.33799 0.22614,0.38047 1.22021,0.31296 1.39432,0.63587 3.27986,0.11456 0.166826,-0.0457 0.264836,-0.21776 0.218796,-0.38413 -0.0458,-0.16706 -0.219106,-0.26501 -0.386266,-0.21829 z"
           id="path123" />
        <path
           id="path127"
           style="fill:#b2df8a;fill-rule:evenodd;stroke:#000000;stroke-width:0.176389;stroke-linecap:round;stroke-linejoin:round;stroke-miterlimit:4;stroke-dasharray:none"
           d="m 92.598704,130.56456 c 0,0 -1.03562,-0.11498 -1.50363,-0.11498 -0.46802,0 -1.30448,0.11498 -1.30448,0.11498 -0.56447,1.34088 -0.76119,2.55481 -0.62294,3.43352 0.13824,0.87871 0.61148,1.42221 1.38692,1.42221 0,0 0.43182,-1.45604 0.77311,-2.26691 0.34191,-0.81234 1.27102,-2.58882 1.27102,-2.58882 z m -0.74174,5.83374 2.04414,-4.85573 -1.3024,-0.97801 c 0,0 -0.92912,1.77648 -1.27102,2.58882 -0.3413,0.81087 -0.77311,2.26691 -0.77311,2.26691 z m -2.56645,-1.95106 c 0.13825,0.87872 1.79101,1.95106 2.56645,1.95106 l -1.30239,-0.97801 c -0.77544,0 -1.24867,-0.5435 -1.38692,-1.42221" />
        <path
           id="path128"
           style="fill:#a6cee3;fill-rule:evenodd;stroke:#000000;stroke-width:0.176389;stroke-linecap:round;stroke-linejoin:round;stroke-miterlimit:4;stroke-dasharray:none"
           d="m 96.709214,131.54257 c -0.56447,1.34088 -1.38982,2.5548 -2.2679,3.43352 -0.87808,0.87872 -1.80891,1.42221 -2.58435,1.42221 l -1.3024,-0.978 c 0.77544,0 1.70627,-0.5435 2.58435,-1.42221 0.87809,-0.87872 1.70343,-2.09265 2.2679,-3.43352 z m -1.3024,-0.978 c -0.56447,1.34087 -1.38981,2.5548 -2.2679,3.43352 -0.87808,0.87871 -1.80891,1.42221 -2.58435,1.42221 0,0 0.43183,-1.45604 0.77312,-2.26691 0.34191,-0.81235 1.27102,-2.58882 1.27102,-2.58882 0,0 0.83646,-0.11499 1.30447,-0.11499 0.46802,0 1.50364,0.11499 1.50364,0.11499 z" />
        <path
           style="color:#000000;fill:#a6cee3;stroke:#000000;stroke-width:0.176389;stroke-linecap:round;stroke-linejoin:round;stroke-miterlimit:4;stroke-dasharray:none"
           d="m 92.173854,135.37097 a 0.31292585,0.31218479 0 0 0 -0.15769,0.41218 c 0.21257,0.47489 0.64163,0.76208 1.11969,0.96826 0.47805,0.20618 1.02722,0.34566 1.57929,0.5134 1.10415,0.3355 2.18232,0.75778 2.74667,1.86945 a 0.31292585,0.31218479 0 0 0 0.42049,0.1378 0.31292585,0.31218479 0 0 0 0.1369,-0.4195 c -0.68128,-1.34202 -1.98591,-1.83889 -3.12192,-2.18407 -0.56801,-0.17259 -1.10332,-0.31341 -1.51329,-0.49023 -0.40998,-0.17682 -0.67402,-0.37526 -0.79699,-0.64998 a 0.31292585,0.31218479 0 0 0 -0.41315,-0.15731 z"
           id="path129" />
      </g>
    </g>
  </g>
  </symbol>
  <symbol id="unit-dimer-h3-h4" viewBox="41.4359 8.8867 12.2766 11.2010">
<g
     id="layer1"
     transform="translate(-68.262148,-120.3781)">
    <g
       id="g133"
       transform="translate(23.656353,0.0233327)">
      <g
         id="part-tetramer">
        <g
           id="part-dimer-h3-h4">
          <path
             id="path113"
             style="fill:#a6cee3;fill-rule:evenodd;stroke:#000000;stroke-width:0.176389;stroke-linecap:round;stroke-linejoin:round;stroke-miterlimit:4;stroke-dasharray:none"
             d="m 93.901104,131.54257 c 0,0 -1.03562,-0.11497 -1.50363,-0.11497 -0.46802,0 -1.30448,0.11497 -1.30448,0.11497 -0.56447,1.34087 -0.76119,2.5548 -0.62294,3.43352 0.13825,0.87871 0.61148,1.42221 1.38692,1.42221 0,0 0.43182,-1.45604 0.77311,-2.26691 0.3419,-0.81234 1.27102,-2.58882 1.27102,-2.58882 z m -0.74174,5.83374 2.04414,-4.85573 -1.3024,-0.97801 c 0,0 -0.92912,1.77648 -1.27102,2.58882 -0.34129,0.81087 -0.77311,2.26691 -0.77311,2.26691 z m -2.56645,-1.95107 c 0.13825,0.87872 1.79102,1.95107 2.56645,1.95107 l -1.30239,-0.97801 c -0.77544,0 -1.24867,-0.5435 -1.38692,-1.42221" />
          <g
             id="part-h4">
            <path
               id="path117"
               style="fill:#b2df8a;fill-rule:evenodd;stroke:#000000;stroke-width:0.176389;stroke-linecap:round;stroke-linejoin:round;stroke-miterlimit:4;stroke-dasharray:none"
               d="m 98.011614,132.52058 c -0.56447,1.34088 -1.38981,2.5548 -2.2679,3.43352 -0.87808,0.87872 -1.80891,1.42221 -2.58435,1.42221 l -1.3024,-0.978 c 0.77544,0 1.70627,-0.5435 2.58435,-1.42222 0.87809,-0.87871 1.70343,-2.09264 2.2679,-3.43351 z m -1.3024,-0.978 c -0.56447,1.34087 -1.38981,2.5548 -2.2679,3.43351 -0.87808,0.87872 -1.80891,1.42222 -2.58435,1.42222 0,0 0.43183,-1.45604 0.77312,-2.26691 0.3419,-0.81235 1.27102,-2.58882 1.27102,-2.58882 0,0 0.83646,-0.11497 1.30447,-0.11497 0.46802,0 1.50364,0.11497 1.50364,0.11497 z" />
          </g>
          <path
             style="color:#000000;fill:#a6cee3;stroke:#000000;stroke-width:0.176389;stroke-linecap:round;stroke-linejoin:round;stroke-miterlimit:4;stroke-dasharray:none"
             d="m 91.695524,136.64927 a 0.31292585,0.31218479 0 0 0 -0.3716,0.24024 c -0.0446,0.20807 -0.20161,0.33628 -0.56351,0.47316 -0.3619,0.13688 -0.881,0.23899 -1.44361,0.38047 -1.12523,0.28295 -2.47555,0.75421 -3.15615,2.16334 a 0.31292585,0.31218479 0 0 0 0.14668,0.41706 0.31292585,0.31218479 0 0 0 0.41805,-0.14633 c 0.56502,-1.16983 1.66067,-1.55552 2.74421,-1.82799 0.54177,-0.13624 1.06833,-0.23581 1.51207,-0.40365 0.44374,-0.16783 0.85205,-0.44667 0.95467,-0.92558 a 0.31292585,0.31218479 0 0 0 -0.24081,-0.37072 z"
             id="path118" />
          <path
             style="fill:none;fill-rule:evenodd;stroke:#7d7d7d;stroke-width:0.264583"
             d="m 98.318346,129.37373 v 0"
             id="path120" />
          <path
             style="color:#000000;fill:#b2df8a;stroke:#000000;stroke-width:0.176389;stroke-linecap:round;stroke-linejoin:round;stroke-miterlimit:4;stroke-dasharray:none"
             d="m 86.879664,135.73376 a 0.31292585,0.31218479 0 0 0 0.0338,0.44037 0.31292585,0.31218479 0 0 0 0.4421,-0.0348 c 0.57246,-0.66894 0.99885,-0.85048 1.42657,-1.10553 0.42771,-0.25505 0.83911,-0.6222 1.10035,-1.45967 a 0.31292585,0.31218479 0 0 0 -0.20653,-0.3909 0.31292585,0.31218479 0 0 0 -0.39114,0.20503 c -0.22779,0.73027 -0.44409,0.88218 -0.8241,1.10881 -0.38004,0.22661 -0.94141,0.48922 -1.58105,1.23666 z"
             id="path121" />
        </g>
      </g>
    </g>
  </g>
  </symbol>
  <symbol id="unit-h4" viewBox="47.1630 10.9846 6.3310 6.1251">
<g
     id="layer1"
     transform="translate(-68.262148,-120.3781)">
    <g
       id="g133"
       transform="translate(23.656353,0.0233327)">
      <g
         id="part-tetramer">
        <g
           id="part-dimer-h3-h4">
          <g
             id="part-h4">
            <path
               id="path117"
               style="fill:#b2df8a;fill-rule:evenodd;stroke:#000000;stroke-width:0.176389;stroke-linecap:round;stroke-linejoin:round;stroke-miterlimit:4;stroke-dasharray:none"
               d="m 98.011614,132.52058 c -0.56447,1.34088 -1.38981,2.5548 -2.2679,3.43352 -0.87808,0.87872 -1.80891,1.42221 -2.58435,1.42221 l -1.3024,-0.978 c 0.77544,0 1.70627,-0.5435 2.58435,-1.42222 0.87809,-0.87871 1.70343,-2.09264 2.2679,-3.43351 z m -1.3024,-0.978 c -0.56447,1.34087 -1.38981,2.5548 -2.2679,3.43351 -0.87808,0.87872 -1.80891,1.42222 -2.58435,1.42222 0,0 0.43183,-1.45604 0.77312,-2.26691 0.3419,-0.81235 1.27102,-2.58882 1.27102,-2.58882 0,0 0.83646,-0.11497 1.30447,-0.11497 0.46802,0 1.50364,0.11497 1.50364,0.11497 z" />
          </g>
        </g>
      </g>
    </g>
  </g>
  </symbol>
  <symbol id="unit-h3" viewBox="67.4402 10.3403 7.6746 9.0322">
<g
     id="layer1"
     transform="translate(-68.262148,-120.3781)">
    <g
       id="g133"
       transform="translate(23.656353,0.0233327)">
      <g
         id="part-h3">
        <path
           id="path134"
           style="fill:#a6cee3;fill-rule:evenodd;stroke:#000000;stroke-width:0.176389;stroke-linecap:round;stroke-linejoin:round;stroke-miterlimit:4;stroke-dasharray:none"
           d="m 118.28885,131.87628 c -0.56447,1.34088 -1.38982,2.5548 -2.2679,3.43352 -0.87808,0.87872 -1.80891,1.42221 -2.58435,1.42221 l -1.3024,-0.978 c 0.77544,0 1.70627,-0.5435 2.58435,-1.42221 0.87809,-0.87872 1.70343,-2.09265 2.2679,-3.43352 z m -1.3024,-0.978 c -0.56447,1.34087 -1.38981,2.5548 -2.2679,3.43352 -0.87808,0.87871 -1.80891,1.42221 -2.58435,1.42221 0,0 0.43183,-1.45604 0.77312,-2.26691 0.34191,-0.81235 1.27102,-2.58882 1.27102,-2.58882 0,0 0.83646,-0.11499 1.30447,-0.11499 0.46802,0 1.50364,0.11499 1.50364,0.11499 z" />
        <path
           style="color:#000000;fill:#a6cee3;stroke:#000000;stroke-width:0.176389;stroke-linecap:round;stroke-linejoin:round;stroke-miterlimit:4;stroke-dasharray:none"
           d="m 113.75349,135.70468 a 0.31292585,0.31218479 0 0 0 -0.15769,0.41218 c 0.21257,0.47489 0.64163,0.76208 1.11969,0.96826 0.47805,0.20618 1.02722,0.34566 1.57929,0.5134 1.10415,0.3355 2.18232,0.75778 2.74667,1.86945 a 0.31292585,0.31218479 0 0 0 0.42049,0.1378 0.31292585,0.31218479 0 0 0 0.1369,-0.4195 c -0.68128,-1.34202 -1.98591,-1.83889 -3.12192,-2.18407 -0.56801,-0.17259 -1.10332,-0.31341 -1.51329,-0.49023 -0.40998,-0.17682 -0.67402,-0.37526 -0.79699,-0.64998 a 0.31292585,0.31218479 0 0 0 -0.41315,-0.15731 z"
           id="path135" />
      </g>
    </g>
  </g>
  </symbol>
  <symbol id="unit-hexasome" viewBox="-0.0000 2.9613 16.3003 16.9126">
    <g id="layer1" transform="translate(-68.262148,-120.37811)">
    <g id="part-nucleosome">
    <g id="g105" transform="translate(0,-0.02027821)">
      <path
         style="fill:none;fill-rule:evenodd;stroke:#000000;stroke-width:0.529167;stroke-linecap:round;stroke-linejoin:round;stroke-miterlimit:4;stroke-dasharray:none"
         d="m 81.450061,136.86459 c -4.1869,0.28076 -6.4681,-2.72327 -6.07942,-4.53255 0.66798,-3.10945 3.08749,-5.39634 4.41258,-5.39633"
         id="path54" />
      <path
         id="path57"
         style="fill:#a6cee3;fill-rule:evenodd;stroke:#000000;stroke-width:0.176389;stroke-linecap:round;stroke-linejoin:round;stroke-miterlimit:4;stroke-dasharray:none"
         d="m 76.121531,131.37243 c 0,0 -1.03562,-0.11497 -1.50363,-0.11497 -0.46802,0 -1.30448,0.11497 -1.30448,0.11497 -0.56447,1.34087 -0.76119,2.5548 -0.62294,3.43352 0.13825,0.87871 0.61148,1.42221 1.38692,1.42221 0,0 0.43182,-1.45604 0.77311,-2.26691 0.3419,-0.81234 1.27102,-2.58882 1.27102,-2.58882 z m -0.74174,5.83374 2.04414,-4.85573 -1.3024,-0.97801 c 0,0 -0.92912,1.77648 -1.27102,2.58882 -0.34129,0.81087 -0.77311,2.26691 -0.77311,2.26691 z m -2.56645,-1.95107 c 0.13825,0.87872 1.79102,1.95107 2.56645,1.95107 l -1.30239,-0.97801 c -0.77544,0 -1.24867,-0.5435 -1.38692,-1.42221" />
      <path
         id="path58"
         style="fill:#b2df8a;fill-rule:evenodd;stroke:#000000;stroke-width:0.176389;stroke-linecap:round;stroke-linejoin:round;stroke-miterlimit:4;stroke-dasharray:none"
         d="m 80.232041,132.35044 c -0.56447,1.34088 -1.38981,2.5548 -2.2679,3.43352 -0.87808,0.87872 -1.80891,1.42221 -2.58435,1.42221 l -1.3024,-0.978 c 0.77544,0 1.70627,-0.5435 2.58435,-1.42222 0.87809,-0.87871 1.70343,-2.09264 2.2679,-3.43351 z m -1.3024,-0.978 c -0.56447,1.34087 -1.38981,2.5548 -2.2679,3.43351 -0.87808,0.87872 -1.80891,1.42222 -2.58435,1.42222 0,0 0.43183,-1.45604 0.77312,-2.26691 0.3419,-0.81235 1.27102,-2.58882 1.27102,-2.58882 0,0 0.83646,-0.11497 1.30447,-0.11497 0.46802,0 1.50364,0.11497 1.50364,0.11497 z" />
      <path
         style="color:#000000;fill:#a6cee3;stroke:#000000;stroke-width:0.176389;stroke-linecap:round;stroke-linejoin:round;stroke-miterlimit:4;stroke-dasharray:none"
         d="m 73.915951,136.47913 a 0.31292585,0.31218479 0 0 0 -0.3716,0.24024 c -0.0446,0.20807 -0.20161,0.33628 -0.56351,0.47316 -0.3619,0.13688 -0.881,0.23899 -1.44361,0.38047 -1.12523,0.28295 -2.47555,0.75421 -3.15615,2.16334 a 0.31292585,0.31218479 0 0 0 0.14668,0.41706 0.31292585,0.31218479 0 0 0 0.41805,-0.14633 c 0.56502,-1.16983 1.66067,-1.55552 2.74421,-1.82799 0.54177,-0.13624 1.06833,-0.23581 1.51207,-0.40365 0.44374,-0.16783 0.85205,-0.44667 0.95467,-0.92558 a 0.31292585,0.31218479 0 0 0 -0.24081,-0.37072 z"
         id="path59" />
      <path
         style="fill:none;fill-rule:evenodd;stroke:#000000;stroke-width:0.529167;stroke-linecap:round;stroke-linejoin:round;stroke-miterlimit:4;stroke-dasharray:none"
         d="m 79.783221,126.93571 c 1.34435,0 1.15078,2.16989 -0.43237,4.84658 v 0 c -1.58314,2.6767 -3.95636,4.84658 -5.30072,4.84659 -0.43034,1e-5 -1.08679,-0.22041 -1.20682,-0.61057"
         id="path62" />
      <path
         style="fill:none;fill-rule:evenodd;stroke:#7d7d7d;stroke-width:0.264583"
         d="m 77.363771,130.7911 v 0"
         id="path63" />
      <path
         style="color:#000000;fill:#b2df8a;stroke:#000000;stroke-width:0.176389;stroke-linecap:round;stroke-linejoin:round;stroke-miterlimit:4;stroke-dasharray:none"
         d="m 69.100091,135.56362 a 0.31292585,0.31218479 0 0 0 0.0338,0.44037 0.31292585,0.31218479 0 0 0 0.4421,-0.0348 c 0.57246,-0.66894 0.99885,-0.85048 1.42657,-1.10553 0.42771,-0.25505 0.83911,-0.6222 1.10035,-1.45967 a 0.31292585,0.31218479 0 0 0 -0.20653,-0.3909 0.31292585,0.31218479 0 0 0 -0.39114,0.20503 c -0.22779,0.73027 -0.44409,0.88218 -0.8241,1.10881 -0.38004,0.22661 -0.94141,0.48922 -1.58105,1.23666 z"
         id="path64" />
      <path
         style="fill:none;fill-rule:evenodd;stroke:#000000;stroke-width:0.529167;stroke-linecap:round;stroke-miterlimit:4;stroke-dasharray:none"
         d="m 72.843311,136.01831 c -0.39636,-0.933 -0.21589,-2.6771 0.58423,-4.67472 1.19374,-2.98032 3.4577,-5.50705 4.88031,-5.50704"
         id="path65" />
      <path
         style="color:#000000;fill:#b2df8a;stroke:#000000;stroke-width:0.176389;stroke-linecap:round;stroke-linejoin:round;stroke-miterlimit:4;stroke-dasharray:none"
         d="m 82.050181,133.3303 c -1.82576,0.50479 -1.82763,0.1727 -2.95715,-0.11699 -0.16743,-0.0432 -0.33825,0.0573 -0.38138,0.22438 -0.0432,0.16741 0.0582,0.33799 0.22614,0.38047 1.22021,0.31296 1.39432,0.63587 3.27986,0.11456 0.16683,-0.0457 0.26484,-0.21776 0.2188,-0.38413 -0.0458,-0.16706 -0.21911,-0.26501 -0.38627,-0.21829 z"
         id="path68" />
      <path
         id="path72"
         style="fill:#b2df8a;fill-rule:evenodd;stroke:#000000;stroke-width:0.176389;stroke-linecap:round;stroke-linejoin:round;stroke-miterlimit:4;stroke-dasharray:none"
         d="m 74.819131,130.39442 c 0,0 -1.03562,-0.11498 -1.50363,-0.11498 -0.46802,0 -1.30448,0.11498 -1.30448,0.11498 -0.56447,1.34088 -0.76119,2.55481 -0.62294,3.43352 0.13824,0.87871 0.61148,1.42221 1.38692,1.42221 0,0 0.43182,-1.45604 0.77311,-2.26691 0.34191,-0.81234 1.27102,-2.58882 1.27102,-2.58882 z m -0.74174,5.83374 2.04414,-4.85573 -1.3024,-0.97801 c 0,0 -0.92912,1.77648 -1.27102,2.58882 -0.3413,0.81087 -0.77311,2.26691 -0.77311,2.26691 z m -2.56645,-1.95106 c 0.13825,0.87872 1.79101,1.95106 2.56645,1.95106 l -1.30239,-0.97801 c -0.77544,0 -1.24867,-0.5435 -1.38692,-1.42221" />
      <path
         id="path73"
         style="fill:#a6cee3;fill-rule:evenodd;stroke:#000000;stroke-width:0.176389;stroke-linecap:round;stroke-linejoin:round;stroke-miterlimit:4;stroke-dasharray:none"
         d="m 78.929641,131.37243 c -0.56447,1.34088 -1.38982,2.5548 -2.2679,3.43352 -0.87808,0.87872 -1.80891,1.42221 -2.58435,1.42221 l -1.3024,-0.978 c 0.77544,0 1.70627,-0.5435 2.58435,-1.42221 0.87809,-0.87872 1.70343,-2.09265 2.2679,-3.43352 z m -1.3024,-0.978 c -0.56447,1.34087 -1.38981,2.5548 -2.2679,3.43352 -0.87808,0.87871 -1.80891,1.42221 -2.58435,1.42221 0,0 0.43183,-1.45604 0.77312,-2.26691 0.34191,-0.81235 1.27102,-2.58882 1.27102,-2.58882 0,0 0.83646,-0.11499 1.30447,-0.11499 0.46802,0 1.50364,0.11499 1.50364,0.11499 z" />
      <path
         style="color:#000000;fill:#a6cee3;stroke:#000000;stroke-width:0.176389;stroke-linecap:round;stroke-linejoin:round;stroke-miterlimit:4;stroke-dasharray:none"
         d="m 74.394281,135.20083 a 0.31292585,0.31218479 0 0 0 -0.15769,0.41218 c 0.21257,0.47489 0.64163,0.76208 1.11969,0.96826 0.47805,0.20618 1.02722,0.34566 1.57929,0.5134 1.10415,0.3355 2.18232,0.75778 2.74667,1.86945 a 0.31292585,0.31218479 0 0 0 0.42049,0.1378 0.31292585,0.31218479 0 0 0 0.1369,-0.4195 c -0.68128,-1.34202 -1.98591,-1.83889 -3.12192,-2.18407 -0.56801,-0.17259 -1.10332,-0.31341 -1.51329,-0.49023 -0.40998,-0.17682 -0.67402,-0.37526 -0.79699,-0.64998 a 0.31292585,0.31218479 0 0 0 -0.41315,-0.15731 z"
         id="path74" />
      <path
         id="path79"
         style="fill:none;fill-rule:evenodd;stroke:#000000;stroke-width:0.529167;stroke-linecap:round;stroke-linejoin:round;stroke-miterlimit:4;stroke-dasharray:none"
         d="m 78.307731,125.83655 c 1.34435,1e-5 1.10353,2.16715 0.14558,3.7868 -1.6628,3.12083 -5.47767,7.09826 -8.92573,7.24124" />
    </g>
    </g>
    </g>
  </symbol>
</svg>
