<?xml version="1.0" encoding="UTF-8" standalone="no"?>
<!-- Created with Inkscape (http://www.inkscape.org/) -->

<svg
   version="1.1"
   id="svg1"
   width="967.17108"
   height="967.1377"
   viewBox="0 0 967.17108 967.1377"
   sodipodi:docname="ghs_toxic.pdf"
   xmlns:inkscape="http://www.inkscape.org/namespaces/inkscape"
   xmlns:sodipodi="http://sodipodi.sourceforge.net/DTD/sodipodi-0.dtd"
   xmlns="http://www.w3.org/2000/svg"
   xmlns:svg="http://www.w3.org/2000/svg">
  <defs
     id="defs1">
    <clipPath
       clipPathUnits="userSpaceOnUse"
       id="clipPath2">
      <path
         d="M 0,0 H 726 V 726 H 0 Z"
         id="path2" />
    </clipPath>
    <clipPath
       clipPathUnits="userSpaceOnUse"
       id="clipPath3">
      <path
         d="m 1.418,1.418 h 723 v 723 h -723 z"
         transform="scale(1.3333333)"
         id="path3" />
    </clipPath>
    <clipPath
       clipPathUnits="userSpaceOnUse"
       id="clipPath5">
      <path
         d="M 2.855,2.836 H 722.562 V 722.5 H 2.855 Z"
         transform="scale(1.3333333)"
         id="path5" />
    </clipPath>
    <clipPath
       clipPathUnits="userSpaceOnUse"
       id="clipPath6">
      <path
         d="M 0,0 H 726 V 726 H 0 Z"
         id="path6" />
    </clipPath>
    <clipPath
       clipPathUnits="userSpaceOnUse"
       id="clipPath7">
      <path
         d="M 0,0 H 726 V 726 H 0 Z"
         id="path7" />
    </clipPath>
    <clipPath
       clipPathUnits="userSpaceOnUse"
       id="clipPath8">
      <path
         d="M 0,0 H 726 V 726 H 0 Z"
         id="path8" />
    </clipPath>
    <clipPath
       clipPathUnits="userSpaceOnUse"
       id="clipPath9">
      <path
         d="M 0,0 H 726 V 726 H 0 Z"
         id="path9" />
    </clipPath>
    <clipPath
       clipPathUnits="userSpaceOnUse"
       id="clipPath10">
      <path
         d="M 0,0 H 726 V 726 H 0 Z"
         id="path10" />
    </clipPath>
    <clipPath
       clipPathUnits="userSpaceOnUse"
       id="clipPath11">
      <path
         d="M 0,0 H 726 V 726 H 0 Z"
         id="path11" />
    </clipPath>
    <clipPath
       clipPathUnits="userSpaceOnUse"
       id="clipPath12">
      <path
         d="M 0,0 H 726 V 726 H 0 Z"
         id="path12" />
    </clipPath>
    <clipPath
       clipPathUnits="userSpaceOnUse"
       id="clipPath13">
      <path
         d="M 0,0 H 726 V 726 H 0 Z"
         id="path13" />
    </clipPath>
    <clipPath
       clipPathUnits="userSpaceOnUse"
       id="clipPath14">
      <path
         d="M 0,0 H 726 V 726 H 0 Z"
         id="path14" />
    </clipPath>
    <clipPath
       clipPathUnits="userSpaceOnUse"
       id="clipPath15">
      <path
         d="M 0,0 H 726 V 726 H 0 Z"
         id="path15" />
    </clipPath>
    <clipPath
       clipPathUnits="userSpaceOnUse"
       id="clipPath16">
      <path
         d="M 0,0 H 726 V 726 H 0 Z"
         id="path16" />
    </clipPath>
    <clipPath
       clipPathUnits="userSpaceOnUse"
       id="clipPath17">
      <path
         d="M 0,0 H 726 V 726 H 0 Z"
         id="path17" />
    </clipPath>
    <clipPath
       clipPathUnits="userSpaceOnUse"
       id="clipPath18">
      <path
         d="M 0,0 H 726 V 726 H 0 Z"
         id="path18" />
    </clipPath>
    <clipPath
       clipPathUnits="userSpaceOnUse"
       id="clipPath19">
      <path
         d="M 0,0 H 726 V 726 H 0 Z"
         id="path19" />
    </clipPath>
    <clipPath
       clipPathUnits="userSpaceOnUse"
       id="clipPath20">
      <path
         d="M 0,0 H 726 V 726 H 0 Z"
         id="path20" />
    </clipPath>
    <clipPath
       clipPathUnits="userSpaceOnUse"
       id="clipPath21">
      <path
         d="M 0,0 H 726 V 726 H 0 Z"
         id="path21" />
    </clipPath>
    <clipPath
       clipPathUnits="userSpaceOnUse"
       id="clipPath22">
      <path
         d="m 1.418,1.418 h 723 v 723 h -723 z"
         transform="scale(1.3333333)"
         id="path22" />
    </clipPath>
    <clipPath
       clipPathUnits="userSpaceOnUse"
       id="clipPath39">
      <path
         d="m 2.855,2.559 h 720 v 720 h -720 z"
         transform="scale(1.3333333)"
         id="path39" />
    </clipPath>
  </defs>
  <sodipodi:namedview
     id="namedview1"
     pagecolor="#ffffff"
     bordercolor="#666666"
     borderopacity="1.0"
     inkscape:showpageshadow="2"
     inkscape:pageopacity="0.0"
     inkscape:pagecheckerboard="0"
     inkscape:deskcolor="#d1d1d1">
    <inkscape:page
       x="0"
       y="0"
       inkscape:label="1"
       id="page1"
       width="967.17108"
       height="967.1377"
       margin="0"
       bleed="0" />
  </sodipodi:namedview>
  <g
     id="g1"
     inkscape:groupmode="layer"
     inkscape:label="1">
    <path
       id="path1"
       d="M 2.836,362.676 362.688,722.539 722.543,362.676 362.688,2.816 2.836,362.676"
       style="fill:#ffffff;fill-opacity:1;fill-rule:nonzero;stroke:none"
       transform="scale(1.3333333)" />
    <g
       id="g5"
       clip-path="url(#clipPath5)">
      <g
         clip-path="url(#clipPath3)"
         id="g4">
        <path
           d="M 665.543,362.691 C 640.605,387.629 387.645,640.602 362.707,665.539 337.77,640.602 84.809,387.629 59.875,362.691 84.812,337.758 337.77,84.793 362.703,59.859 c 24.938,24.934 277.902,277.899 302.84,302.832 z m -662.688,0 L 362.707,722.559 722.562,362.691 362.703,2.836 2.855,362.691"
           style="fill:#ef2e32;fill-opacity:1;fill-rule:nonzero;stroke:none"
           transform="scale(1.3333333)"
           clip-path="url(#clipPath2)"
           id="path4" />
      </g>
    </g>
    <g
       id="g39"
       clip-path="url(#clipPath39)">
      <g
         clip-path="url(#clipPath22)"
         id="g38">
        <path
           d="m 517.402,432.211 5.395,-2.559 c 0.84,-0.394 1.617,-0.761 2.344,-1.109 0.457,-2.18 0.754,-3.59 0.765,-3.645 0.602,-2.855 -1.222,-5.656 -4.074,-6.257 -2.855,-0.602 -5.656,1.222 -6.258,4.074 -0.207,0.98 -5.082,24.086 -6.156,30.531 -0.625,3.746 -5.125,6.266 -8.941,6.266 -6.204,0 -12.25,-7.114 -12.59,-9.793 -2.047,-16.356 -11.91,-24.321 -19.825,-28.125 l -50.996,-24.528 c -2.453,2.668 -5.246,5.266 -8.359,7.696 l 54.781,26.347 c 8.18,3.934 12.735,10.45 13.922,19.922 0.938,7.489 11.266,19.039 23.067,19.039 8.277,0 17.781,-5.644 19.359,-15.09 0.418,-2.527 1.492,-7.937 2.625,-13.48 l -0.469,0.223 -4.59,-9.512"
           style="fill:#100f0d;fill-opacity:1;fill-rule:nonzero;stroke:none"
           transform="scale(1.3333333)"
           clip-path="url(#clipPath6)"
           id="path23" />
        <path
           d="m 476.539,414.133 2.602,1.269 c 3.086,1.668 5.007,2.348 11.726,2.348 4.664,0 8.801,-1.547 12.797,-3.039 4.422,-1.656 8.996,-3.367 14.965,-3.367 7.062,0 16.074,4.972 16.074,8.867 0,3.16 -0.383,3.949 -9.562,8.332 -0.727,0.348 -1.504,0.715 -2.344,1.109 l -5.395,2.559 4.59,9.512 0.469,-0.223 4.828,-2.289 c 11.207,-5.266 17.977,-8.445 17.977,-19 0,-11.859 -15.778,-19.426 -26.637,-19.426 -7.879,0 -13.859,2.235 -18.664,4.035 -3.406,1.27 -6.344,2.371 -9.098,2.371 -4.715,0 -5.176,-0.25 -6.707,-1.078 l -3.523,-1.715 c -3.711,-1.562 -34.543,-16.261 -52.66,-24.933 -0.981,3.027 -2.536,6.242 -4.622,9.496 10.774,5.152 48.786,23.32 53.184,25.172"
           style="fill:#100f0d;fill-opacity:1;fill-rule:nonzero;stroke:none"
           transform="scale(1.3333333)"
           clip-path="url(#clipPath7)"
           id="path24" />
        <path
           d="m 430.781,340.148 -1.57,0.946 v 9.297 c 8.539,-3.903 41.324,-18.918 49.379,-23.067 9.125,-4.695 16.058,-14.75 20.203,-20.754 l 1.59,-2.273 c 2.746,-3.777 8.472,-8.192 15.562,-8.192 2.332,0 3.344,0.762 3.899,1.336 3.402,3.512 3.074,13.782 2.84,21.282 l -0.133,5.953 c -0.063,2.914 2.25,5.211 5.164,5.277 2.914,0.063 5.332,-2.363 5.394,-5.277 l 0.047,-2.125 c -0.808,-2.211 -2.785,-5.332 -6.297,-7.043 l 4.629,-9.492 c 0.614,0.3 1.196,0.629 1.766,0.972 -0.391,-6.558 -1.774,-12.711 -5.82,-16.894 -2.93,-3.02 -6.793,-4.551 -11.489,-4.551 -11.047,0 -19.695,6.48 -24.105,12.543 l -1.738,2.488 c -3.348,4.848 -9.575,13.879 -16.344,17.36 -4.867,2.507 -19.211,9.183 -31.446,14.824 -2.757,2.008 -5.648,3.781 -8.449,5.492 l -3.082,1.898"
           style="fill:#100f0d;fill-opacity:1;fill-rule:nonzero;stroke:none"
           transform="scale(1.3333333)"
           clip-path="url(#clipPath8)"
           id="path25" />
        <path
           d="m 526.859,315.508 c 3.512,1.711 5.489,4.832 6.297,7.043 0.297,0.808 0.446,1.5 0.446,1.953 v 10.164 c 0,2.883 -0.84,6.316 -4.825,6.316 -3.273,0 -7.457,-2.039 -11.496,-4.011 -4.664,-2.274 -9.066,-4.422 -13.57,-4.422 l -0.762,-0.028 c -2.637,-0.125 -8.113,-0.382 -15.836,3.231 l -0.148,0.07 -57.754,29.25 v 7.367 c 0,1.493 -0.207,3.098 -0.602,4.778 12.407,-6.285 62.801,-31.809 63.008,-31.91 5.34,-2.493 8.645,-2.34 10.832,-2.239 l 1.262,0.043 c 2.066,0 5.559,1.703 8.937,3.352 4.883,2.383 10.418,5.082 16.129,5.082 9.059,0 15.383,-6.942 15.383,-16.879 v -10.164 c 0,-5.524 -3.812,-13.215 -10.906,-17.516 -0.57,-0.343 -1.152,-0.672 -1.766,-0.972 l -4.629,9.492"
           style="fill:#100f0d;fill-opacity:1;fill-rule:nonzero;stroke:none"
           transform="scale(1.3333333)"
           clip-path="url(#clipPath9)"
           id="path26" />
        <path
           d="m 409.578,315.988 c 17.598,0 25.008,-22.097 25.008,-27.789 0,-5.687 -4.496,-8.07 -7.145,-8.07 -2.644,0 -29.902,0 -33.476,0 -3.574,0 -12.172,2.91 -12.172,8.469 0,2.082 1.559,6.656 4.918,11.109 5.797,7.68 10.828,16.281 22.867,16.281"
           style="fill:#100f0d;fill-opacity:1;fill-rule:nonzero;stroke:none"
           transform="scale(1.3333333)"
           clip-path="url(#clipPath10)"
           id="path27" />
        <path
           d="m 296.809,189.953 c -3.11,3.051 -6.325,6.211 -9.957,9.531 l -4.754,4.313 c -14.364,13.008 -24.739,22.402 -24.739,32.476 0,16.891 10.422,31.942 18.032,42.93 l 1.347,1.996 c 0.688,-4.894 1.364,-8.785 1.735,-10.265 -0.996,-4.528 -1.711,-7.582 -2.231,-9.7 -4.519,-7.668 -8.324,-16.289 -8.324,-24.961 0,-5.39 10.332,-14.746 21.266,-24.648 l 4.785,-4.344 c 3.777,-3.449 7.062,-6.676 10.238,-9.793 7.234,-7.109 12.949,-12.722 19.602,-16.09 14.992,-7.601 28.597,-10.402 42.82,-10.402 29.359,0 43.617,12.242 61.668,28.68 l 9.578,8.586 3.57,3.097 c 11.481,9.95 22.328,19.348 22.328,24.914 0,6.903 -2.41,13.778 -5.675,20.161 -0.344,2.156 -0.981,4.992 -2.164,10.238 0,0 -2.047,9.187 -2.493,11.183 0.239,0.946 0.579,2.375 0.961,4.161 l 1.899,-2.813 c 7.613,-10.988 18.035,-26.039 18.035,-42.93 0,-10.39 -10.898,-19.832 -25.977,-32.894 l -3.55,-3.082 -9.403,-8.43 c -18.168,-16.543 -35.328,-32.168 -68.777,-32.168 -15.727,0 -31.293,4.016 -47.594,12.278 -8.109,4.109 -14.652,10.535 -22.226,17.976"
           style="fill:#100f0d;fill-opacity:1;fill-rule:nonzero;stroke:none"
           transform="scale(1.3333333)"
           clip-path="url(#clipPath11)"
           id="path28" />
        <path
           d="m 455.934,266.672 c 1.183,-5.246 1.82,-8.082 2.164,-10.238 0.375,-2.352 0.402,-3.899 0.402,-6.887 0,-11.371 -3.141,-16.274 -14.75,-28.406 l -7.633,7.297 c 10.875,11.371 11.824,13.792 11.824,21.109 0,4.551 0,4.551 -2.308,14.805 l -3.067,13.746 0.356,1.254 c 0.035,0.128 3.586,13.183 3.586,25.703 0,13.09 -8.012,17.984 -18.153,24.183 l -3.183,1.961 -10.887,6.563 c -11.492,6.75 -17.234,9.734 -17.234,21.523 v 6.738 c 0,3.911 -14.778,13.93 -30.528,13.93 -14.464,0 -30.382,-10.023 -30.961,-13.637 0.004,-4.828 0.208,-6.925 0.208,-6.925 0,-11.559 -5.602,-14.813 -16.766,-21.293 -3.106,-1.801 -6.973,-4.047 -11.524,-6.899 l -3.183,-1.961 c -10.141,-6.199 -17.379,-9.715 -17.379,-24.183 0,-15.231 3.625,-20.672 3.625,-25.371 0,-4.7 -5.07,-23.024 -5.07,-25.875 0,-0.368 0.043,-3.461 0.043,-3.461 0,-6.852 0.871,-12.567 11.461,-21.985 0.859,-0.761 2.164,-3.09 1.121,-4.379 -1.047,-1.289 -1.469,-1.824 -2.688,-3.269 -1.222,-1.442 -4.426,-1.149 -5.367,-0.313 -12.527,11.133 -15.09,19.559 -15.09,29.946 0,0 -0.043,3.086 -0.043,3.547 0,2.82 -0.117,1.394 1.332,7.339 0.52,2.118 1.235,5.172 2.231,9.7 -0.371,1.48 -1.047,5.371 -1.735,10.265 -1.082,7.723 -2.195,17.938 -2.195,25.121 0,9.848 4.535,16.797 10.473,22.2 7.222,3.351 14.683,6.781 20.187,9.308 h 7.84 v 3.586 c 0.402,0.184 0.641,0.293 0.668,0.305 l -0.668,1.472 v 3.657 c 0.223,0.129 0.445,0.261 0.66,0.386 10.656,6.184 11.465,6.911 11.504,11.735 -0.156,1.304 -0.203,3.437 -0.203,7.41 0,13.09 25.504,24.137 41.519,24.137 17.77,0 41.305,-12.02 41.305,-24.493 v -6.738 c 0,-5.324 0.563,-5.812 10.824,-11.84 v -9.617 h 10.559 v 3.266 l 1.57,-0.946 3.082,-1.898 c 2.801,-1.711 5.692,-3.484 8.449,-5.492 7.954,-5.797 14.754,-13.586 14.754,-27.703 0,-8.821 -1.507,-17.602 -2.664,-23.039 -0.382,-1.786 -0.722,-3.215 -0.961,-4.161 0.446,-1.996 2.493,-11.183 2.493,-11.183"
           style="fill:#100f0d;fill-opacity:1;fill-rule:nonzero;stroke:none"
           transform="scale(1.3333333)"
           clip-path="url(#clipPath12)"
           id="path29" />
        <path
           d="m 302.609,374.547 c 0.25,2.144 0.864,4.461 1.817,6.879 2.152,-1.031 4.183,-2.004 6.051,-2.895 -0.665,-0.336 -3.582,-1.816 -7.868,-3.984"
           style="fill:#100f0d;fill-opacity:1;fill-rule:nonzero;stroke:none"
           transform="scale(1.3333333)"
           clip-path="url(#clipPath13)"
           id="path30" />
        <path
           d="m 429.211,365.074 v -27.246 h -10.559 v 34.613 c 0,6.989 -9.578,21.911 -26.894,30.618 l -0.563,0.281 c -8.379,4.211 -18.804,9.031 -23.121,9.031 -3.972,0 -17.406,-3.918 -28.14,-9.312 -17.317,-8.707 -26.891,-23.629 -26.891,-30.618 v -29.25 l -3.711,8.137 c -0.406,-0.187 -3.012,-1.375 -6.852,-3.133 v 14.45 l 5.043,2.554 3.075,13.274 c 0.273,-0.133 0.554,-0.266 0.82,-0.395 l 4.562,9.524 c -0.429,0.207 -2.855,1.367 -6.472,3.097 1.937,2.785 4.262,5.567 6.933,8.258 l 4.532,-2.133 10.183,6.875 -5.883,2.774 c 3.043,2.191 6.352,4.226 9.918,6.019 8.715,4.383 25.192,10.863 32.883,10.863 6.821,0 17.043,-5.14 27.867,-10.582 l 0.559,-0.281 c 4.477,-2.25 8.559,-4.879 12.207,-7.73 3.113,-2.43 5.906,-5.028 8.359,-7.696 2.446,-2.664 4.551,-5.394 6.289,-8.105 2.086,-3.254 3.641,-6.469 4.622,-9.496 0.25,-0.762 0.457,-1.512 0.632,-2.246 0.395,-1.68 0.602,-3.285 0.602,-4.778 v -7.367"
           style="fill:#100f0d;fill-opacity:1;fill-rule:nonzero;stroke:none"
           transform="scale(1.3333333)"
           clip-path="url(#clipPath14)"
           id="path31" />
        <path
           d="m 313.043,337.828 h -7.84 c 3.766,1.727 6.609,3.024 7.84,3.586 v -3.586"
           style="fill:#100f0d;fill-opacity:1;fill-rule:nonzero;stroke:none"
           transform="scale(1.3333333)"
           clip-path="url(#clipPath15)"
           id="path32" />
        <path
           d="m 320.973,396.824 -44.637,21.031 -7.902,3.739 c -7.914,3.804 -17.778,11.769 -19.825,28.125 -0.336,2.679 -6.39,9.793 -12.589,9.793 -3.817,0 -8.317,-2.52 -8.942,-6.266 -1.074,-6.445 -5.949,-29.551 -6.156,-30.531 -0.606,-2.852 -3.402,-4.676 -6.258,-4.074 -2.855,0.601 -4.68,3.402 -4.074,6.257 0.012,0.055 0.308,1.465 0.765,3.645 0.727,0.348 1.5,0.715 2.344,1.109 l 5.391,2.559 -4.586,9.512 -0.469,-0.223 c 1.129,5.543 2.203,10.949 2.625,13.48 1.574,9.446 11.078,15.09 19.36,15.09 11.8,0 22.128,-11.55 23.066,-19.039 1.187,-9.472 5.742,-15.988 13.922,-19.922 l 7.793,-3.687 44.472,-20.949 5.883,-2.774 -10.183,-6.875"
           style="fill:#100f0d;fill-opacity:1;fill-rule:nonzero;stroke:none"
           transform="scale(1.3333333)"
           clip-path="url(#clipPath16)"
           id="path33" />
        <path
           d="m 219.09,432.211 -5.391,-2.559 c -0.844,-0.394 -1.617,-0.761 -2.344,-1.109 -9.179,-4.383 -9.562,-5.172 -9.562,-8.332 0,-3.895 9.012,-8.867 16.074,-8.867 5.969,0 10.543,1.711 14.969,3.367 3.996,1.492 8.129,3.039 12.793,3.039 6.715,0 8.641,-0.68 11.726,-2.348 l 2.602,-1.269 c 4.07,-1.715 35.645,-16.785 49.551,-23.434 3.617,-1.73 6.043,-2.89 6.472,-3.097 l -4.562,-9.524 c -0.266,0.129 -0.547,0.262 -0.82,0.395 l 0.027,0.132 c 0,0 -0.055,-0.027 -0.148,-0.074 -1.868,0.891 -3.899,1.864 -6.051,2.895 -18.321,8.758 -45.121,21.523 -48.567,22.972 l -3.523,1.715 c -1.527,0.828 -1.992,1.078 -6.707,1.078 -2.754,0 -5.695,-1.101 -9.098,-2.371 -4.804,-1.8 -10.785,-4.035 -18.664,-4.035 -10.863,0 -26.637,7.567 -26.637,19.426 0,10.555 6.766,13.734 17.981,19 l 5.293,2.512 4.586,-9.512"
           style="fill:#100f0d;fill-opacity:1;fill-rule:nonzero;stroke:none"
           transform="scale(1.3333333)"
           clip-path="url(#clipPath17)"
           id="path34" />
        <path
           d="m 209.637,315.508 c -3.516,1.711 -5.489,4.832 -6.301,7.043 l 0.047,2.125 c 0.066,2.914 2.48,5.34 5.398,5.277 2.914,-0.066 5.227,-2.363 5.164,-5.277 l -0.129,-5.953 c -0.238,-7.5 -0.566,-17.77 2.832,-21.282 0.563,-0.574 1.571,-1.336 3.903,-1.336 7.09,0 12.812,4.415 15.562,8.192 l 1.59,2.273 c 4.141,6.004 11.074,16.059 20.199,20.754 7.086,3.645 32.258,15.227 44.578,20.871 3.84,1.758 6.446,2.946 6.852,3.133 l 3.711,-8.137 0.668,-1.472 c -0.027,-0.012 -0.266,-0.121 -0.668,-0.305 -1.231,-0.562 -4.074,-1.859 -7.84,-3.586 -5.504,-2.527 -12.965,-5.957 -20.187,-9.308 -9.496,-4.411 -18.582,-8.684 -22.282,-10.586 -6.765,-3.481 -12.992,-12.512 -16.339,-17.36 l -1.739,-2.488 c -4.414,-6.063 -13.062,-12.543 -24.105,-12.543 -4.696,0 -8.559,1.531 -11.485,4.551 -4.05,4.183 -5.433,10.336 -5.824,16.894 0.57,-0.343 1.153,-0.672 1.766,-0.972 l 4.629,9.492"
           style="fill:#100f0d;fill-opacity:1;fill-rule:nonzero;stroke:none"
           transform="scale(1.3333333)"
           clip-path="url(#clipPath18)"
           id="path35" />
        <path
           d="m 310.625,378.605 -0.027,-0.132 -3.075,-13.274 -5.043,-2.554 -53.019,-26.856 -0.078,-0.035 c -7.723,-3.613 -13.199,-3.356 -15.836,-3.231 l -0.762,0.028 c -4.504,0 -8.906,2.148 -13.57,4.422 -4.043,1.972 -8.223,4.011 -11.496,4.011 -3.985,0 -4.824,-3.433 -4.824,-6.316 v -10.164 c 0,-0.453 0.148,-1.141 0.441,-1.953 0.812,-2.211 2.785,-5.332 6.301,-7.043 l -4.629,-9.492 c -0.613,0.3 -1.196,0.629 -1.766,0.972 -7.094,4.301 -10.906,11.992 -10.906,17.516 v 10.164 c 0,9.937 6.324,16.879 15.383,16.879 5.715,0 11.246,-2.699 16.125,-5.082 3.383,-1.649 6.875,-3.352 8.941,-3.352 l 1.262,-0.043 c 2.187,-0.101 5.496,-0.254 10.832,2.239 0.183,0.089 40.238,20.379 57.73,29.238 4.286,2.168 7.203,3.648 7.868,3.984 0.093,0.047 0.148,0.074 0.148,0.074"
           style="fill:#100f0d;fill-opacity:1;fill-rule:nonzero;stroke:none"
           transform="scale(1.3333333)"
           clip-path="url(#clipPath19)"
           id="path36" />
        <path
           d="m 322.113,315.988 c 12.043,0 17.071,-8.601 22.867,-16.281 3.364,-4.453 4.922,-9.027 4.922,-11.109 0,-5.559 -8.601,-8.469 -12.175,-8.469 -3.571,0 -30.829,0 -33.477,0 -2.645,0 -7.145,2.383 -7.145,8.07 0,5.692 7.415,27.789 25.008,27.789"
           style="fill:#100f0d;fill-opacity:1;fill-rule:nonzero;stroke:none"
           transform="scale(1.3333333)"
           clip-path="url(#clipPath20)"
           id="path37" />
        <path
           d="m 356.84,359.379 c 8.226,0 5.453,-3.328 12.48,-3.328 5.731,0 3.789,3.234 11.555,3.234 7.211,0 8.969,-5.453 8.969,-7.672 0,-3.422 -3.875,-5.621 -5.641,-10.261 -1.758,-4.622 -5.18,-21.727 -15.625,-21.727 -3.836,0 -6.055,1.57 -8.965,4.992 -4.715,5.547 -5.093,14.875 -8.043,18.492 -2.867,3.512 -3.976,7.282 -3.976,9.243 0,2.125 1.019,7.027 9.246,7.027"
           style="fill:#100f0d;fill-opacity:1;fill-rule:nonzero;stroke:none"
           transform="scale(1.3333333)"
           clip-path="url(#clipPath21)"
           id="path38" />
      </g>
    </g>
  </g>
</svg>
