<?xml version="1.0" encoding="UTF-8" standalone="no"?>
<!-- Created with Inkscape (http://www.inkscape.org/) -->

<svg
   version="1.1"
   id="svg1"
   width="967.17108"
   height="967.1377"
   viewBox="0 0 967.17108 967.1377"
   sodipodi:docname="ghs_corrosive.pdf"
   xmlns:inkscape="http://www.inkscape.org/namespaces/inkscape"
   xmlns:sodipodi="http://sodipodi.sourceforge.net/DTD/sodipodi-0.dtd"
   xmlns="http://www.w3.org/2000/svg"
   xmlns:svg="http://www.w3.org/2000/svg">
  <defs
     id="defs1">
    <clipPath
       clipPathUnits="userSpaceOnUse"
       id="clipPath2">
      <path
         d="M 0,0 H 726 V 726 H 0 Z"
         id="path2" />
    </clipPath>
    <clipPath
       clipPathUnits="userSpaceOnUse"
       id="clipPath3">
      <path
         d="M 0,0 H 726 V 726 H 0 Z"
         id="path3" />
    </clipPath>
    <clipPath
       clipPathUnits="userSpaceOnUse"
       id="clipPath4">
      <path
         d="M 0,0 H 726 V 726 H 0 Z"
         id="path4" />
    </clipPath>
    <clipPath
       clipPathUnits="userSpaceOnUse"
       id="clipPath5">
      <path
         d="M 0,0 H 726 V 726 H 0 Z"
         id="path5" />
    </clipPath>
    <clipPath
       clipPathUnits="userSpaceOnUse"
       id="clipPath6">
      <path
         d="M 0,0 H 726 V 726 H 0 Z"
         id="path6" />
    </clipPath>
    <clipPath
       clipPathUnits="userSpaceOnUse"
       id="clipPath7">
      <path
         d="M 0,0 H 726 V 726 H 0 Z"
         id="path7" />
    </clipPath>
    <clipPath
       clipPathUnits="userSpaceOnUse"
       id="clipPath8">
      <path
         d="M 0,0 H 726 V 726 H 0 Z"
         id="path8" />
    </clipPath>
    <clipPath
       clipPathUnits="userSpaceOnUse"
       id="clipPath9">
      <path
         d="M 0,0 H 726 V 726 H 0 Z"
         id="path9" />
    </clipPath>
    <clipPath
       clipPathUnits="userSpaceOnUse"
       id="clipPath10">
      <path
         d="M 0,0 H 726 V 726 H 0 Z"
         id="path10" />
    </clipPath>
    <clipPath
       clipPathUnits="userSpaceOnUse"
       id="clipPath11">
      <path
         d="M 0,0 H 726 V 726 H 0 Z"
         id="path11" />
    </clipPath>
    <clipPath
       clipPathUnits="userSpaceOnUse"
       id="clipPath12">
      <path
         d="M 0,0 H 726 V 726 H 0 Z"
         id="path12" />
    </clipPath>
    <clipPath
       clipPathUnits="userSpaceOnUse"
       id="clipPath13">
      <path
         d="M 0,0 H 726 V 726 H 0 Z"
         id="path13" />
    </clipPath>
    <clipPath
       clipPathUnits="userSpaceOnUse"
       id="clipPath14">
      <path
         d="M 0,0 H 726 V 726 H 0 Z"
         id="path14" />
    </clipPath>
    <clipPath
       clipPathUnits="userSpaceOnUse"
       id="clipPath15">
      <path
         d="M 0,0 H 726 V 726 H 0 Z"
         id="path15" />
    </clipPath>
    <clipPath
       clipPathUnits="userSpaceOnUse"
       id="clipPath16">
      <path
         d="M 0,0 H 726 V 726 H 0 Z"
         id="path16" />
    </clipPath>
    <clipPath
       clipPathUnits="userSpaceOnUse"
       id="clipPath17">
      <path
         d="M 0,0 H 726 V 726 H 0 Z"
         id="path17" />
    </clipPath>
    <clipPath
       clipPathUnits="userSpaceOnUse"
       id="clipPath18">
      <path
         d="M 0,0 H 726 V 726 H 0 Z"
         id="path18" />
    </clipPath>
    <clipPath
       clipPathUnits="userSpaceOnUse"
       id="clipPath19">
      <path
         d="M 0,0 H 726 V 726 H 0 Z"
         id="path19" />
    </clipPath>
    <clipPath
       clipPathUnits="userSpaceOnUse"
       id="clipPath20">
      <path
         d="M 0,0 H 726 V 726 H 0 Z"
         id="path20" />
    </clipPath>
    <clipPath
       clipPathUnits="userSpaceOnUse"
       id="clipPath21">
      <path
         d="m 1.418,1.418 h 723 v 723 h -723 z"
         transform="scale(1.3333333)"
         id="path21" />
    </clipPath>
    <clipPath
       clipPathUnits="userSpaceOnUse"
       id="clipPath22">
      <path
         d="M 362.707,722.559 722.621,362.645 362.707,2.727 2.789,362.645 Z"
         transform="scale(1.3333333)"
         id="path22" />
    </clipPath>
    <clipPath
       clipPathUnits="userSpaceOnUse"
       id="clipPath43">
      <path
         d="m 2.418,2.418 h 721 v 721 h -721 z"
         transform="scale(1.3333333)"
         id="path43" />
    </clipPath>
    <clipPath
       clipPathUnits="userSpaceOnUse"
       id="clipPath44">
      <path
         d="M 0,0 H 726 V 726 H 0 Z"
         id="path44" />
    </clipPath>
    <clipPath
       clipPathUnits="userSpaceOnUse"
       id="clipPath45">
      <path
         d="M 0,0 H 726 V 726 H 0 Z"
         id="path45" />
    </clipPath>
    <clipPath
       clipPathUnits="userSpaceOnUse"
       id="clipPath46">
      <path
         d="m 1.418,1.418 h 723 v 723 h -723 z"
         transform="scale(1.3333333)"
         id="path46" />
    </clipPath>
    <clipPath
       clipPathUnits="userSpaceOnUse"
       id="clipPath47">
      <path
         d="M 362.664,722.52 722.523,362.656 362.703,2.836 2.844,362.699 Z"
         transform="scale(1.3333333)"
         id="path47" />
    </clipPath>
    <clipPath
       clipPathUnits="userSpaceOnUse"
       id="clipPath51">
      <path
         d="m 2.418,2.418 h 721 v 721 h -721 z"
         transform="scale(1.3333333)"
         id="path51" />
    </clipPath>
  </defs>
  <sodipodi:namedview
     id="namedview1"
     pagecolor="#ffffff"
     bordercolor="#666666"
     borderopacity="1.0"
     inkscape:showpageshadow="2"
     inkscape:pageopacity="0.0"
     inkscape:pagecheckerboard="0"
     inkscape:deskcolor="#d1d1d1">
    <inkscape:page
       x="0"
       y="0"
       inkscape:label="1"
       id="page1"
       width="967.17108"
       height="967.1377"
       margin="0"
       bleed="0" />
  </sodipodi:namedview>
  <g
     id="g1"
     inkscape:groupmode="layer"
     inkscape:label="1">
    <path
       id="path1"
       d="M 2.836,362.676 362.688,722.539 722.543,362.676 362.688,2.816 2.836,362.676"
       style="fill:#ffffff;fill-opacity:1;fill-rule:nonzero;stroke:none"
       transform="scale(1.3333333)" />
    <g
       id="g43"
       clip-path="url(#clipPath43)">
      <g
         clip-path="url(#clipPath22)"
         id="g42">
        <g
           id="g22" />
        <g
           clip-path="url(#clipPath21)"
           id="g41">
          <path
             d="m 228.5,379.25 c -11.117,0 -17.898,-3.848 -21.105,-10.129 h -79.981 v 36.555 h 199.309 v -36.555 h -72.465 c -4.926,6.317 -14.535,10.129 -25.758,10.129"
             style="fill:#100f0d;fill-opacity:1;fill-rule:nonzero;stroke:none"
             transform="scale(1.3333333)"
             clip-path="url(#clipPath2)"
             id="path23" />
          <path
             d="m 246.906,365.719 c 3.25,0 7.91,-1.574 11.664,-9.082 0.856,-1.711 1.035,-3.891 1.219,-6.203 0.098,-1.204 0.262,-3.137 0.539,-3.868 0.363,-0.246 1.192,-0.613 1.777,-0.871 2.211,-0.965 5.239,-2.289 6.829,-5.468 0.89,-1.782 1.152,-3.539 1.152,-5.219 0,-1.258 -0.148,-2.469 -0.285,-3.617 -0.145,-1.207 -0.281,-2.368 -0.285,-3.575 0,-0.41 0.015,-0.82 0.054,-1.242 0.18,-2.101 3.868,-6.652 7.196,-9.586 l -5.071,-5.765 c -1.539,1.347 -9.23,8.402 -9.777,14.683 -0.215,2.469 0.035,4.559 0.258,6.403 0.265,2.191 0.39,3.48 -0.11,4.484 -0.347,0.691 -1.777,1.316 -3.039,1.867 -1.953,0.856 -4.172,1.824 -5.394,4.07 -1.086,1.985 -1.293,4.579 -1.496,7.086 -0.094,1.153 -0.235,2.899 -0.449,3.418 -0.657,1.309 -1.356,2.368 -2.059,3.161 -0.481,1.324 -1.305,3.218 -2.723,5.25 v 4.074"
             style="fill:#100f0d;fill-opacity:1;fill-rule:nonzero;stroke:none"
             transform="scale(1.3333333)"
             clip-path="url(#clipPath3)"
             id="path24" />
          <path
             d="m 236.906,360.934 4.387,6.3 c 2.516,-1.75 4.312,-3.726 5.613,-5.589 1.418,-2.032 2.242,-3.926 2.723,-5.25 0.183,-0.493 0.324,-0.918 0.422,-1.227 0.691,-2.148 0.183,-4.188 -0.27,-5.98 -0.469,-1.879 -0.734,-3.09 -0.219,-4.235 0.598,-1.34 1.618,-2.141 2.903,-3.152 1.473,-1.156 3.297,-2.594 4.445,-5.004 1.414,-2.981 0.586,-6.266 -0.215,-9.442 -0.562,-2.23 -1.144,-4.539 -0.832,-6.3 l -7.562,-1.34 c -0.145,0.82 -0.207,1.633 -0.207,2.433 0,2.508 0.605,4.907 1.156,7.086 0.312,1.235 0.758,3.004 0.758,3.903 0,0.16 -0.016,0.293 -0.047,0.39 -0.344,0.723 -1.043,1.293 -2.242,2.239 -1.688,1.328 -3.789,2.98 -5.164,6.043 -0.707,1.574 -0.95,3.105 -0.95,4.511 0,1.836 0.411,3.469 0.727,4.739 0.152,0.597 0.375,1.484 0.375,1.839 -0.789,2.426 -2.168,5.504 -5.801,8.036"
             style="fill:#100f0d;fill-opacity:1;fill-rule:nonzero;stroke:none"
             transform="scale(1.3333333)"
             clip-path="url(#clipPath4)"
             id="path25" />
          <path
             d="m 203.188,345.199 c 0.515,0.946 0.839,1.84 1.058,2.684 0.766,0.488 1.883,1.219 2.102,1.586 0.34,0.898 0.015,3.433 -0.2,5.105 -0.07,0.555 -0.136,1.086 -0.191,1.606 1.828,1.828 4.707,3.945 6.262,4.722 l -2.891,5.789 c 1.43,2.047 3.098,4.079 4.613,5.747 l 5.684,-5.165 c -3.273,-3.601 -5.57,-7.101 -6.117,-8.64 -0.012,-0.071 -0.016,-0.145 -0.016,-0.242 0,-0.672 0.16,-1.95 0.278,-2.84 0.191,-1.504 0.398,-3.117 0.398,-4.707 0,-1.442 -0.172,-2.864 -0.676,-4.176 -1.015,-2.645 -3.375,-4.148 -5.273,-5.359 -1.117,-0.715 -2.653,-1.692 -2.731,-2.309 -0.019,-0.16 -0.027,-0.312 -0.027,-0.465 0,-0.773 0.238,-1.562 0.672,-2.898 0.629,-1.949 1.465,-4.532 1.465,-8.293 0,-0.508 -0.016,-1.035 -0.047,-1.586 l -7.668,0.453 c 0.191,3.199 -0.418,5.078 -1.059,7.066 -0.605,1.875 -1.289,3.996 -0.957,6.676 0.016,0.129 0.043,0.25 0.067,0.375 1.785,0.942 3.859,2.293 5.254,4.871"
             style="fill:#100f0d;fill-opacity:1;fill-rule:nonzero;stroke:none"
             transform="scale(1.3333333)"
             clip-path="url(#clipPath5)"
             id="path26" />
          <path
             d="m 186.992,329.281 c 0.129,1.5 -0.109,2.567 -0.383,3.801 -0.464,2.106 -1.047,4.727 0.688,8.195 1.547,3.094 4.211,4.418 6.152,5.383 1.571,0.781 2.485,1.266 2.989,2.195 0.628,1.161 0.554,1.961 0.433,3.29 -0.144,1.621 -0.344,3.843 1.074,6.246 2.301,3.918 8.293,8.109 10.84,9.382 l 0.543,-1.082 2.891,-5.789 c -1.555,-0.777 -4.434,-2.894 -6.262,-4.722 -0.613,-0.614 -1.105,-1.192 -1.395,-1.68 -0.136,-0.234 -0.144,-0.516 -0.039,-1.672 0.11,-1.242 0.247,-2.941 -0.277,-4.945 -0.219,-0.844 -0.543,-1.738 -1.058,-2.684 -1.395,-2.578 -3.469,-3.929 -5.254,-4.871 -0.372,-0.195 -0.731,-0.379 -1.067,-0.547 -1.637,-0.812 -2.34,-1.215 -2.699,-1.937 -0.5,-1 -0.438,-1.395 -0.059,-3.098 0.321,-1.457 0.766,-3.453 0.536,-6.121 -0.438,-5.066 -4.364,-9.316 -7.52,-12.727 l -2.328,-2.613 -5.945,4.863 2.632,2.961 c 2.36,2.551 5.297,5.731 5.508,8.172"
             style="fill:#100f0d;fill-opacity:1;fill-rule:nonzero;stroke:none"
             transform="scale(1.3333333)"
             clip-path="url(#clipPath6)"
             id="path27" />
          <path
             d="m 220.988,334.492 c 0,5.895 1.422,13.824 8.336,13.824 6.914,0 8.742,-8.945 8.742,-12.605 0,-3.231 -4.906,-16.91 -6.058,-29.305 -1.528,-0.023 -2.805,-0.461 -3.875,-1.156 -1.071,13.898 -7.145,23.859 -7.145,29.242"
             style="fill:#100f0d;fill-opacity:1;fill-rule:nonzero;stroke:none"
             transform="scale(1.3333333)"
             clip-path="url(#clipPath7)"
             id="path28" />
          <path
             d="m 334.547,251.059 c -10.242,0.64 -99.68,9.281 -99.68,9.281 l -1.922,-12.645 c 0,0 88.481,-15.359 98.879,-17.121 10.403,-1.758 17.762,2.403 17.762,8.965 0,6.559 -4.801,10.879 -15.039,11.52 z m -5.203,-28.325 c -15.117,2.403 -84.051,14.805 -90.719,16.082 -9.805,1.879 -12.074,-7.035 -16.559,-9.117 0,0 6.614,38.832 6.996,41.715 1.379,10.375 -5.718,15.723 -5.718,23.484 0,2.809 1.222,8.036 4.789,10.352 1.07,0.695 2.347,1.133 3.875,1.156 0.047,0 0.09,0.012 0.137,0.012 6.722,0 8.16,-6.723 8.16,-11.84 0,-7.926 -3.84,-12.48 -3.84,-14.398 0,-1.922 1.601,-4.16 7.68,-5.125 6.082,-0.957 82.082,-14.157 94.082,-16.078 12,-1.918 20.878,-11.762 18.957,-21.84 -1.918,-10.078 -12.719,-16.801 -27.84,-14.403"
             style="fill:#100f0d;fill-opacity:1;fill-rule:nonzero;stroke:none"
             transform="scale(1.3333333)"
             clip-path="url(#clipPath8)"
             id="path29" />
          <path
             d="m 494.004,301.363 c -2.066,10.68 -6.516,20.926 -6.52,23.735 0,3.66 1.09,12.804 8.004,12.804 6.91,0 9.078,-8.125 9.078,-14.023 0,-4.664 -4.082,-12.199 -5.793,-23.09 -1,0.445 -2.144,0.699 -3.453,0.699 -0.468,0 -0.902,-0.05 -1.316,-0.125"
             style="fill:#100f0d;fill-opacity:1;fill-rule:nonzero;stroke:none"
             transform="scale(1.3333333)"
             clip-path="url(#clipPath9)"
             id="path30" />
          <path
             d="m 391.984,226.898 c 10.411,1.711 104.082,18.079 104.082,18.079 l -1.918,12.64 c 0,0 -96.882,-8.48 -107.121,-9.121 -10.242,-0.637 -14.882,-4.16 -14.882,-10.719 0,-6.558 8.16,-12.8 19.839,-10.879 z m -9.027,29.758 c 12,1.918 96.105,15.934 102.188,16.903 3.472,0.55 6.312,2.839 6.312,3.785 0,0.945 -3.707,4.496 -3.707,10.73 0,4.762 0.742,12.262 6.254,13.289 0.414,0.075 0.848,0.125 1.316,0.125 1.309,0 2.453,-0.254 3.453,-0.699 4.145,-1.832 5.778,-6.988 5.778,-11.687 0,-10.969 -5.703,-8.813 -4.328,-19.188 0.382,-2.883 5.918,-40.539 5.918,-40.539 -4.485,2.086 -5.676,9.82 -15.477,7.941 -6.668,-1.277 -83.789,-15.511 -98.91,-17.91 -15.121,-2.402 -25.356,5.461 -27.277,15.543 -1.922,10.078 6.48,19.785 18.48,21.707"
             style="fill:#100f0d;fill-opacity:1;fill-rule:nonzero;stroke:none"
             transform="scale(1.3333333)"
             clip-path="url(#clipPath10)"
             id="path31" />
          <path
             d="m 527.926,313.348 c 0.054,1.078 0.086,1.672 -0.512,3.004 -1.113,2.476 -3.07,5.574 -6.039,6.265 l 1.746,7.485 c 3.324,-0.782 7.988,-3.25 11.297,-10.598 1.355,-3.02 1.254,-5.055 1.18,-6.539 -0.063,-1.207 -0.086,-1.703 0.933,-3.313 0.727,-1.14 0.93,-1.195 1.801,-1.422 1.969,-0.515 4.234,-1.371 6.18,-4.996 2.218,-4.136 1.504,-7.582 0.98,-10.097 -0.285,-1.375 -0.512,-2.461 -0.332,-3.59 0.27,-1.715 1.481,-3.035 3.785,-5.402 1.254,-1.293 2.676,-2.754 4.11,-4.579 l -6.039,-4.746 c -1.184,1.512 -2.403,2.762 -3.578,3.973 -2.559,2.629 -5.204,5.352 -5.864,9.559 -0.398,2.511 0.043,4.64 0.399,6.351 0.465,2.235 0.636,3.293 -0.231,4.902 -0.523,0.977 -0.539,0.981 -1.355,1.196 -1.934,0.508 -4.18,1.332 -6.34,4.738 -2.149,3.391 -2.231,5.625 -2.121,7.809"
             style="fill:#100f0d;fill-opacity:1;fill-rule:nonzero;stroke:none"
             transform="scale(1.3333333)"
             clip-path="url(#clipPath11)"
             id="path32" />
          <path
             d="m 514.781,326.379 c 3.684,-3.238 4.824,-4.41 6.5,-9.805 1.094,-3.508 0.844,-5.828 0.641,-7.691 -0.16,-1.481 -0.274,-2.551 0.234,-4.453 0.262,-0.977 0.348,-1.024 1.422,-1.598 1.637,-0.879 4.379,-2.348 5.598,-7.113 1.113,-4.367 -0.149,-7.117 -1.071,-9.125 -0.714,-1.563 -1.148,-2.508 -0.773,-4.559 l -7.559,-1.371 c -0.804,4.426 0.442,7.145 1.352,9.133 0.719,1.566 1.047,2.285 0.605,4.023 -0.378,1.489 -0.648,1.637 -1.777,2.239 -1.535,0.824 -4.098,2.199 -5.219,6.39 -0.879,3.289 -0.64,5.489 -0.449,7.258 0.168,1.566 0.281,2.598 -0.34,4.586 -1.109,3.57 -1.226,3.672 -4.234,6.316 l -1.789,1.59 5.133,5.707 1.726,-1.527"
             style="fill:#100f0d;fill-opacity:1;fill-rule:nonzero;stroke:none"
             transform="scale(1.3333333)"
             clip-path="url(#clipPath12)"
             id="path33" />
          <path
             d="m 457.934,300.84 c 0.863,3.848 3.609,5.539 5.609,6.777 1.824,1.125 2.437,1.594 2.691,2.797 0.403,1.883 0.227,2.414 -0.046,3.219 -0.54,1.605 -0.954,3.285 -0.126,6.179 1.446,5.055 2.985,6.758 8.106,11.876 l 5.43,-5.43 c -4.848,-4.852 -5.25,-5.41 -6.153,-8.555 -0.238,-0.844 -0.218,-0.902 0.024,-1.625 0.566,-1.683 1.051,-3.633 0.281,-7.262 -0.965,-4.515 -4.094,-6.453 -6.168,-7.73 -1.574,-0.973 -2.02,-1.32 -2.156,-1.934 -0.274,-1.218 0.023,-2.152 0.672,-3.984 0.785,-2.215 1.761,-4.98 1.297,-8.922 l -7.629,0.899 c 0.257,2.167 -0.258,3.625 -0.911,5.464 -0.753,2.137 -1.695,4.797 -0.921,8.231"
             style="fill:#100f0d;fill-opacity:1;fill-rule:nonzero;stroke:none"
             transform="scale(1.3333333)"
             clip-path="url(#clipPath13)"
             id="path34" />
          <path
             d="m 452.75,298.754 c 0,-1.367 -0.211,-2.965 -0.852,-4.863 -1.781,-5.235 -3.628,-7.25 -5.773,-9.582 l -2.152,-2.442 -5.914,4.903 2.41,2.73 c 1.929,2.102 2.898,3.156 4.156,6.859 0.66,1.953 0.465,2.969 0.164,4.516 -0.379,1.98 -0.906,4.691 0.793,8.52 1.875,4.222 4.695,5.257 6.563,5.945 1.238,0.457 1.46,0.539 1.894,1.472 0.742,1.598 0.645,2.055 0.473,2.887 -0.231,1.102 -0.617,2.938 0.445,5.356 1.375,3.121 5.242,10.476 11.508,11.398 l 1.117,-7.601 c -1.535,-0.223 -3.996,-3.25 -5.594,-6.887 l -0.066,-0.18 0.105,-0.508 c 0.161,-0.765 0.293,-1.57 0.297,-2.488 -0.004,-1.387 -0.312,-3.039 -1.316,-5.207 -1.77,-3.812 -4.442,-4.797 -6.211,-5.453 -1.324,-0.484 -1.637,-0.598 -2.195,-1.856 -0.383,-0.859 -0.52,-1.468 -0.52,-2.089 0,-0.547 0.106,-1.102 0.25,-1.848 0.188,-0.988 0.418,-2.156 0.418,-3.582"
             style="fill:#100f0d;fill-opacity:1;fill-rule:nonzero;stroke:none"
             transform="scale(1.3333333)"
             clip-path="url(#clipPath14)"
             id="path35" />
          <path
             d="m 502.941,343.566 c -7.535,6.086 -24.39,6.563 -33.328,-1.562 l -1.883,-1.715 -2.312,1.07 c -3.43,1.59 -7.996,1.723 -11.668,1.829 -4.668,0.132 -8.355,0.238 -10.25,3.187 -1.375,2.137 -1.242,5.051 0.367,7.992 0.258,0.477 0.567,0.957 0.91,1.434 h 16.754 c -6.234,0 -9.5,-2.938 -10.711,-4.793 0.973,-0.074 2.149,-0.117 3.149,-0.145 3.679,-0.109 8.105,-0.312 12.312,-1.691 4.578,3.488 10.168,5.488 15.871,6.246 4.133,-4.856 11.118,-6.637 15.188,-6.637 v 5.75 c 3.176,-0.832 6.101,-2.058 8.558,-3.648 4.075,1.758 9.801,5.23 13.778,7.64 3.457,2.098 5.172,3.129 6.304,3.567 3.489,1.34 18,2.531 26.993,2.531 v -7.68 c -10.157,0 -22.325,-1.339 -24.243,-2.027 -0.613,-0.25 -3.085,-1.75 -5.074,-2.957 -5.168,-3.137 -12.25,-7.434 -17.09,-9.051 l -1.992,-0.664 -1.633,1.324"
             style="fill:#100f0d;fill-opacity:1;fill-rule:nonzero;stroke:none"
             transform="scale(1.3333333)"
             clip-path="url(#clipPath15)"
             id="path36" />
          <path
             d="m 461.531,355.801 h -28.648 c -12.903,0 -14.274,7.902 -14.274,10.672 0,0.765 0.09,1.746 0.352,2.8 h 11.644 c -3.421,-0.003 -4.511,-1.339 -4.511,-2.777 0,-1.434 1.312,-3.012 6.789,-3.012 h 45.988 c 0.246,-3.125 1.359,-5.656 2.961,-7.683 h -20.301"
             style="fill:#100f0d;fill-opacity:1;fill-rule:nonzero;stroke:none"
             transform="scale(1.3333333)"
             clip-path="url(#clipPath16)"
             id="path37" />
          <path
             d="m 486.605,363.484 h 1.106 l 22.957,-5.359 -13.094,-2.324 h -0.234 v 0.66 c -0.106,0 -9.61,0.437 -10.735,7.023"
             style="fill:#100f0d;fill-opacity:1;fill-rule:nonzero;stroke:none"
             transform="scale(1.3333333)"
             clip-path="url(#clipPath17)"
             id="path38" />
          <path
             d="m 414.48,369.273 c -7.406,0 -12.378,5.813 -12.378,11.239 0,5.176 4.597,11.429 12.757,11.429 h 2.387 c 0.551,-2.953 2.895,-7.148 11.652,-7.629 v -0.05 h -14.039 c -2.875,0 -5.015,-2.824 -5.074,-3.762 0,-1 1.395,-3.547 4.695,-3.547 h 49.895 v -7.683 l -49.895,0.003"
             style="fill:#100f0d;fill-opacity:1;fill-rule:nonzero;stroke:none"
             transform="scale(1.3333333)"
             clip-path="url(#clipPath18)"
             id="path39" />
          <path
             d="m 417.246,391.941 c -0.117,0.625 -0.156,1.196 -0.156,1.661 0,6.3 5.547,11.429 15.035,11.429 h 0.176 c 1.441,-4.261 6.687,-7.258 13.672,-7.636 v -0.043 h -13.848 c -4.762,0 -7.355,-2.477 -7.355,-3.75 0,-1.09 2.937,-1.661 5.835,-1.661 h 33.77 v -7.679 h -33.77 c -0.597,0 -1.16,0.019 -1.707,0.05 -8.757,0.481 -11.101,4.676 -11.652,7.629"
             style="fill:#100f0d;fill-opacity:1;fill-rule:nonzero;stroke:none"
             transform="scale(1.3333333)"
             clip-path="url(#clipPath19)"
             id="path40" />
          <path
             d="m 432.301,405.031 c -0.262,0.77 -0.414,1.574 -0.414,2.418 0,4.821 4.316,10.043 13.957,10.848 6.98,0.582 37.105,1.531 42.625,1.531 4.496,0 23.363,-0.605 33.519,-3.566 3.024,-0.887 5.555,-2.063 7.996,-3.2 5.282,-2.457 10.739,-4.996 22.61,-4.996 v -7.679 c -13.571,0 -20.094,3.035 -25.848,5.715 -2.285,1.062 -4.445,2.066 -6.91,2.785 -8.527,2.488 -25.977,3.261 -31.367,3.261 -5.094,0 -35.227,-0.941 -41.989,-1.503 -4.886,-0.407 -6.91,-2.282 -6.914,-3.196 0.172,-0.465 2.52,-2.418 7.926,-2.418 h 30.922 l -7.398,-7.683 -23.528,0.004 c -0.511,0 -1.019,0.015 -1.515,0.043 -6.985,0.378 -12.231,3.375 -13.672,7.636"
             style="fill:#100f0d;fill-opacity:1;fill-rule:nonzero;stroke:none"
             transform="scale(1.3333333)"
             clip-path="url(#clipPath20)"
             id="path41" />
        </g>
      </g>
    </g>
    <g
       id="g51"
       clip-path="url(#clipPath51)">
      <g
         clip-path="url(#clipPath47)"
         id="g50">
        <g
           id="g47" />
        <g
           clip-path="url(#clipPath46)"
           id="g49">
          <path
             d="m 482.152,355.418 c -0.105,0.125 -0.214,0.254 -0.32,0.383 -1.602,2.027 -2.715,4.558 -2.961,7.683 -0.031,0.426 -0.055,0.864 -0.055,1.313 0,7.144 3.762,19.605 28.961,22.789 l 0.961,-7.621 c -8.304,-1.047 -22.242,-4.414 -22.242,-15.168 0,-0.465 0.039,-0.899 0.109,-1.313 1.125,-6.586 10.629,-7.023 10.735,-7.023 v -7.68 c -4.07,0 -11.055,1.781 -15.188,6.637"
             style="fill:#100f0d;fill-opacity:1;fill-rule:nonzero;stroke:none"
             transform="scale(1.3333333)"
             clip-path="url(#clipPath44)"
             id="path48" />
          <path
             d="M 665.543,362.695 C 640.605,387.629 387.645,640.602 362.707,665.539 337.77,640.602 84.812,387.629 59.875,362.695 84.812,337.758 337.77,84.793 362.703,59.859 c 24.938,24.934 277.902,277.899 302.84,302.836 z m -662.688,0 L 362.707,722.559 722.562,362.695 362.703,2.836 2.855,362.695"
             style="fill:#ef2e32;fill-opacity:1;fill-rule:nonzero;stroke:none"
             transform="scale(1.3333333)"
             clip-path="url(#clipPath45)"
             id="path49" />
        </g>
      </g>
    </g>
  </g>
</svg>
