<?xml version="1.0" encoding="UTF-8" standalone="no"?>
<!-- Created with Inkscape (http://www.inkscape.org/) -->

<svg
   version="1.1"
   id="svg1"
   width="967.17108"
   height="967.1377"
   viewBox="0 0 967.17108 967.1377"
   sodipodi:docname="ghs_explosive.pdf"
   xmlns:inkscape="http://www.inkscape.org/namespaces/inkscape"
   xmlns:sodipodi="http://sodipodi.sourceforge.net/DTD/sodipodi-0.dtd"
   xmlns="http://www.w3.org/2000/svg"
   xmlns:svg="http://www.w3.org/2000/svg">
  <defs
     id="defs1">
    <clipPath
       clipPathUnits="userSpaceOnUse"
       id="clipPath1">
      <path
         d="M 0,0 H 726 V 726 H 0 Z"
         id="path1" />
    </clipPath>
    <clipPath
       clipPathUnits="userSpaceOnUse"
       id="clipPath2">
      <path
         d="M 0,0 H 726 V 726 H 0 Z"
         id="path2" />
    </clipPath>
    <clipPath
       clipPathUnits="userSpaceOnUse"
       id="clipPath3">
      <path
         d="M 0,0 H 726 V 726 H 0 Z"
         id="path3" />
    </clipPath>
    <clipPath
       clipPathUnits="userSpaceOnUse"
       id="clipPath4">
      <path
         d="m 1.418,1.418 h 723 v 723 h -723 z"
         transform="scale(1.3333333)"
         id="path4" />
    </clipPath>
    <clipPath
       clipPathUnits="userSpaceOnUse"
       id="clipPath8">
      <path
         d="M 2.855,2.836 H 722.562 V 722.5 H 2.855 Z"
         transform="scale(1.3333333)"
         id="path8" />
    </clipPath>
    <clipPath
       clipPathUnits="userSpaceOnUse"
       id="clipPath9">
      <path
         d="M 0,0 H 726 V 726 H 0 Z"
         id="path9" />
    </clipPath>
    <clipPath
       clipPathUnits="userSpaceOnUse"
       id="clipPath10">
      <path
         d="M 0,0 H 726 V 726 H 0 Z"
         id="path10" />
    </clipPath>
    <clipPath
       clipPathUnits="userSpaceOnUse"
       id="clipPath11">
      <path
         d="M 0,0 H 726 V 726 H 0 Z"
         id="path11" />
    </clipPath>
    <clipPath
       clipPathUnits="userSpaceOnUse"
       id="clipPath12">
      <path
         d="M 0,0 H 726 V 726 H 0 Z"
         id="path12" />
    </clipPath>
    <clipPath
       clipPathUnits="userSpaceOnUse"
       id="clipPath13">
      <path
         d="M 0,0 H 726 V 726 H 0 Z"
         id="path13" />
    </clipPath>
    <clipPath
       clipPathUnits="userSpaceOnUse"
       id="clipPath14">
      <path
         d="M 0,0 H 726 V 726 H 0 Z"
         id="path14" />
    </clipPath>
    <clipPath
       clipPathUnits="userSpaceOnUse"
       id="clipPath15">
      <path
         d="M 0,0 H 726 V 726 H 0 Z"
         id="path15" />
    </clipPath>
    <clipPath
       clipPathUnits="userSpaceOnUse"
       id="clipPath16">
      <path
         d="M 0,0 H 726 V 726 H 0 Z"
         id="path16" />
    </clipPath>
    <clipPath
       clipPathUnits="userSpaceOnUse"
       id="clipPath17">
      <path
         d="M 0,0 H 726 V 726 H 0 Z"
         id="path17" />
    </clipPath>
    <clipPath
       clipPathUnits="userSpaceOnUse"
       id="clipPath18">
      <path
         d="M 0,0 H 726 V 726 H 0 Z"
         id="path18" />
    </clipPath>
    <clipPath
       clipPathUnits="userSpaceOnUse"
       id="clipPath19">
      <path
         d="M 0,0 H 726 V 726 H 0 Z"
         id="path19" />
    </clipPath>
    <clipPath
       clipPathUnits="userSpaceOnUse"
       id="clipPath20">
      <path
         d="M 0,0 H 726 V 726 H 0 Z"
         id="path20" />
    </clipPath>
    <clipPath
       clipPathUnits="userSpaceOnUse"
       id="clipPath21">
      <path
         d="M 0,0 H 726 V 726 H 0 Z"
         id="path21" />
    </clipPath>
    <clipPath
       clipPathUnits="userSpaceOnUse"
       id="clipPath22">
      <path
         d="M 0,0 H 726 V 726 H 0 Z"
         id="path22" />
    </clipPath>
    <clipPath
       clipPathUnits="userSpaceOnUse"
       id="clipPath23">
      <path
         d="M 0,0 H 726 V 726 H 0 Z"
         id="path23" />
    </clipPath>
    <clipPath
       clipPathUnits="userSpaceOnUse"
       id="clipPath24">
      <path
         d="M 0,0 H 726 V 726 H 0 Z"
         id="path24" />
    </clipPath>
    <clipPath
       clipPathUnits="userSpaceOnUse"
       id="clipPath25">
      <path
         d="M 0,0 H 726 V 726 H 0 Z"
         id="path25" />
    </clipPath>
    <clipPath
       clipPathUnits="userSpaceOnUse"
       id="clipPath26">
      <path
         d="M 0,0 H 726 V 726 H 0 Z"
         id="path26" />
    </clipPath>
    <clipPath
       clipPathUnits="userSpaceOnUse"
       id="clipPath27">
      <path
         d="M 0,0 H 726 V 726 H 0 Z"
         id="path27" />
    </clipPath>
    <clipPath
       clipPathUnits="userSpaceOnUse"
       id="clipPath28">
      <path
         d="M 0,0 H 726 V 726 H 0 Z"
         id="path28" />
    </clipPath>
    <clipPath
       clipPathUnits="userSpaceOnUse"
       id="clipPath29">
      <path
         d="M 0,0 H 726 V 726 H 0 Z"
         id="path29" />
    </clipPath>
    <clipPath
       clipPathUnits="userSpaceOnUse"
       id="clipPath30">
      <path
         d="M 0,0 H 726 V 726 H 0 Z"
         id="path30" />
    </clipPath>
    <clipPath
       clipPathUnits="userSpaceOnUse"
       id="clipPath31">
      <path
         d="M 0,0 H 726 V 726 H 0 Z"
         id="path31" />
    </clipPath>
    <clipPath
       clipPathUnits="userSpaceOnUse"
       id="clipPath32">
      <path
         d="M 0,0 H 726 V 726 H 0 Z"
         id="path32" />
    </clipPath>
    <clipPath
       clipPathUnits="userSpaceOnUse"
       id="clipPath33">
      <path
         d="M 0,0 H 726 V 726 H 0 Z"
         id="path33" />
    </clipPath>
    <clipPath
       clipPathUnits="userSpaceOnUse"
       id="clipPath34">
      <path
         d="M 0,0 H 726 V 726 H 0 Z"
         id="path34" />
    </clipPath>
    <clipPath
       clipPathUnits="userSpaceOnUse"
       id="clipPath35">
      <path
         d="M 0,0 H 726 V 726 H 0 Z"
         id="path35" />
    </clipPath>
    <clipPath
       clipPathUnits="userSpaceOnUse"
       id="clipPath36">
      <path
         d="M 0,0 H 726 V 726 H 0 Z"
         id="path36" />
    </clipPath>
    <clipPath
       clipPathUnits="userSpaceOnUse"
       id="clipPath37">
      <path
         d="M 0,0 H 726 V 726 H 0 Z"
         id="path37" />
    </clipPath>
    <clipPath
       clipPathUnits="userSpaceOnUse"
       id="clipPath38">
      <path
         d="M 0,0 H 726 V 726 H 0 Z"
         id="path38" />
    </clipPath>
    <clipPath
       clipPathUnits="userSpaceOnUse"
       id="clipPath39">
      <path
         d="M 0,0 H 726 V 726 H 0 Z"
         id="path39" />
    </clipPath>
    <clipPath
       clipPathUnits="userSpaceOnUse"
       id="clipPath40">
      <path
         d="M 0,0 H 726 V 726 H 0 Z"
         id="path40" />
    </clipPath>
    <clipPath
       clipPathUnits="userSpaceOnUse"
       id="clipPath41">
      <path
         d="M 0,0 H 726 V 726 H 0 Z"
         id="path41" />
    </clipPath>
    <clipPath
       clipPathUnits="userSpaceOnUse"
       id="clipPath42">
      <path
         d="M 0,0 H 726 V 726 H 0 Z"
         id="path42" />
    </clipPath>
    <clipPath
       clipPathUnits="userSpaceOnUse"
       id="clipPath43">
      <path
         d="M 0,0 H 726 V 726 H 0 Z"
         id="path43" />
    </clipPath>
    <clipPath
       clipPathUnits="userSpaceOnUse"
       id="clipPath44">
      <path
         d="M 0,0 H 726 V 726 H 0 Z"
         id="path44" />
    </clipPath>
    <clipPath
       clipPathUnits="userSpaceOnUse"
       id="clipPath45">
      <path
         d="M 0,0 H 726 V 726 H 0 Z"
         id="path45" />
    </clipPath>
    <clipPath
       clipPathUnits="userSpaceOnUse"
       id="clipPath46">
      <path
         d="M 0,0 H 726 V 726 H 0 Z"
         id="path46" />
    </clipPath>
    <clipPath
       clipPathUnits="userSpaceOnUse"
       id="clipPath47">
      <path
         d="M 0,0 H 726 V 726 H 0 Z"
         id="path47" />
    </clipPath>
    <clipPath
       clipPathUnits="userSpaceOnUse"
       id="clipPath48">
      <path
         d="M 0,0 H 726 V 726 H 0 Z"
         id="path48" />
    </clipPath>
    <clipPath
       clipPathUnits="userSpaceOnUse"
       id="clipPath49">
      <path
         d="M 0,0 H 726 V 726 H 0 Z"
         id="path49" />
    </clipPath>
    <clipPath
       clipPathUnits="userSpaceOnUse"
       id="clipPath50">
      <path
         d="M 0,0 H 726 V 726 H 0 Z"
         id="path50" />
    </clipPath>
    <clipPath
       clipPathUnits="userSpaceOnUse"
       id="clipPath51">
      <path
         d="M 0,0 H 726 V 726 H 0 Z"
         id="path51" />
    </clipPath>
    <clipPath
       clipPathUnits="userSpaceOnUse"
       id="clipPath52">
      <path
         d="M 0,0 H 726 V 726 H 0 Z"
         id="path52" />
    </clipPath>
    <clipPath
       clipPathUnits="userSpaceOnUse"
       id="clipPath53">
      <path
         d="M 0,0 H 726 V 726 H 0 Z"
         id="path53" />
    </clipPath>
    <clipPath
       clipPathUnits="userSpaceOnUse"
       id="clipPath54">
      <path
         d="m 1.418,1.418 h 723 v 723 h -723 z"
         transform="scale(1.3333333)"
         id="path54" />
    </clipPath>
    <clipPath
       clipPathUnits="userSpaceOnUse"
       id="clipPath100">
      <path
         d="m 2.855,2.559 h 720 v 720 h -720 z"
         transform="scale(1.3333333)"
         id="path100" />
    </clipPath>
  </defs>
  <sodipodi:namedview
     id="namedview1"
     pagecolor="#ffffff"
     bordercolor="#666666"
     borderopacity="1.0"
     inkscape:showpageshadow="2"
     inkscape:pageopacity="0.0"
     inkscape:pagecheckerboard="0"
     inkscape:deskcolor="#d1d1d1">
    <inkscape:page
       x="0"
       y="0"
       inkscape:label="1"
       id="page1"
       width="967.17108"
       height="967.1377"
       margin="0"
       bleed="0" />
  </sodipodi:namedview>
  <g
     id="g1"
     inkscape:groupmode="layer"
     inkscape:label="1">
    <g
       id="g8"
       clip-path="url(#clipPath8)">
      <g
         clip-path="url(#clipPath4)"
         id="g7">
        <path
           d="M 2.855,362.695 362.707,722.559 722.562,362.695 362.707,2.836 2.855,362.695"
           style="fill:#ffffff;fill-opacity:1;fill-rule:nonzero;stroke:none"
           transform="scale(1.3333333)"
           clip-path="url(#clipPath1)"
           id="path5" />
        <path
           d="M 2.836,360.848 362.688,720.711 722.543,360.848 362.688,0.988 2.836,360.848"
           style="fill:#ffffff;fill-opacity:1;fill-rule:nonzero;stroke:none"
           transform="scale(1.3333333)"
           clip-path="url(#clipPath2)"
           id="path6" />
        <path
           d="M 665.539,362.695 C 640.605,387.629 387.645,640.602 362.707,665.539 337.77,640.602 84.812,387.629 59.875,362.695 84.812,337.758 337.77,84.793 362.707,59.859 387.641,84.793 640.605,337.758 665.539,362.695 Z m -662.684,0 L 362.707,722.559 722.562,362.695 362.707,2.836 2.855,362.695"
           style="fill:#ef2e32;fill-opacity:1;fill-rule:nonzero;stroke:none"
           transform="scale(1.3333333)"
           clip-path="url(#clipPath3)"
           id="path7" />
      </g>
    </g>
    <g
       id="g100"
       clip-path="url(#clipPath100)">
      <g
         clip-path="url(#clipPath54)"
         id="g99">
        <path
           d="m 404.75,173.605 -9.789,-4.472 -51.043,145.562 c 3.035,1.086 5.969,2.469 8.719,4.125 L 404.75,173.605"
           style="fill:#100f0d;fill-opacity:1;fill-rule:nonzero;stroke:none"
           transform="scale(1.3333333)"
           clip-path="url(#clipPath9)"
           id="path55" />
        <path
           d="m 397.758,243.539 -5.035,-3.078 -39.77,78.562 c 0.215,0.133 0.426,0.27 0.637,0.407 l 44.168,-75.891"
           style="fill:#100f0d;fill-opacity:1;fill-rule:nonzero;stroke:none"
           transform="scale(1.3333333)"
           clip-path="url(#clipPath10)"
           id="path56" />
        <path
           d="m 342.625,314.242 30.238,-93.922 -5.593,-3.355 -24.903,97.187 c 0.086,0.028 0.172,0.063 0.258,0.09"
           style="fill:#100f0d;fill-opacity:1;fill-rule:nonzero;stroke:none"
           transform="scale(1.3333333)"
           clip-path="url(#clipPath11)"
           id="path57" />
        <path
           d="m 349.23,252.594 4.344,-6.34 7.516,-8.18 -4.141,-13.394 -5.676,-0.102 -2.453,6.238 -4.804,-1.894 -2.454,11.914 5.114,2.402 2.554,9.356"
           style="fill:#100f0d;fill-opacity:1;fill-rule:nonzero;stroke:none"
           transform="scale(1.3333333)"
           clip-path="url(#clipPath12)"
           id="path58" />
        <path
           d="m 395.441,259.121 -3.179,4.461 -1.836,9.293 6.418,5.563 4.59,-5.563 1.281,-6.297 -2.813,-7.519 -2.199,2.324 -2.262,-2.262"
           style="fill:#100f0d;fill-opacity:1;fill-rule:nonzero;stroke:none"
           transform="scale(1.3333333)"
           clip-path="url(#clipPath13)"
           id="path59" />
        <path
           d="m 368.992,321.551 -0.758,-1.774 -6.129,6.676 c 0.329,0.352 0.661,0.703 0.977,1.067 l 5.91,-5.969"
           style="fill:#100f0d;fill-opacity:1;fill-rule:nonzero;stroke:none"
           transform="scale(1.3333333)"
           clip-path="url(#clipPath14)"
           id="path60" />
        <path
           d="m 380.98,309.449 88.208,-89.051 -5.079,-5.074 -89.433,97.438 4.664,-3.278 1.64,-0.035"
           style="fill:#100f0d;fill-opacity:1;fill-rule:nonzero;stroke:none"
           transform="scale(1.3333333)"
           clip-path="url(#clipPath15)"
           id="path61" />
        <path
           d="m 336.449,354.406 22.758,-22.976 -1.648,-0.02 -21.11,22.996"
           style="fill:#100f0d;fill-opacity:1;fill-rule:nonzero;stroke:none"
           transform="scale(1.3333333)"
           clip-path="url(#clipPath16)"
           id="path62" />
        <path
           d="M 468.934,265.574 351.168,348.57 468.934,275.473 v -9.899"
           style="fill:#100f0d;fill-opacity:1;fill-rule:nonzero;stroke:none"
           transform="scale(1.3333333)"
           clip-path="url(#clipPath17)"
           id="path63" />
        <path
           d="m 432.387,319.887 -0.508,-5.836 -69.289,32.742 69.797,-26.906"
           style="fill:#100f0d;fill-opacity:1;fill-rule:nonzero;stroke:none"
           transform="scale(1.3333333)"
           clip-path="url(#clipPath18)"
           id="path64" />
        <path
           d="m 369.695,323.188 9.391,-4.313 2.031,7.105 14.977,-12.183 8.375,-15.481 -13.199,10.914 -10.29,0.219 -1.64,0.035 -11.926,8.375 2.281,5.329"
           style="fill:#100f0d;fill-opacity:1;fill-rule:nonzero;stroke:none"
           transform="scale(1.3333333)"
           clip-path="url(#clipPath19)"
           id="path65" />
        <path
           d="m 452.438,303.391 -2.286,6.093 21.063,2.536 -13.957,-13.958 -4.82,5.329"
           style="fill:#100f0d;fill-opacity:1;fill-rule:nonzero;stroke:none"
           transform="scale(1.3333333)"
           clip-path="url(#clipPath20)"
           id="path66" />
        <path
           d="m 510.301,277.758 14.215,9.644 -0.254,-17.257 -9.391,-15.993 -4.312,13.453 -11.422,0.508 -3.301,2.539 -1.524,9.645 8.883,5.074 7.106,-7.613"
           style="fill:#100f0d;fill-opacity:1;fill-rule:nonzero;stroke:none"
           transform="scale(1.3333333)"
           clip-path="url(#clipPath21)"
           id="path67" />
        <path
           d="m 556.625,305.938 -2.879,-6.083 -207.359,53.762 210.238,-47.679"
           style="fill:#100f0d;fill-opacity:1;fill-rule:nonzero;stroke:none"
           transform="scale(1.3333333)"
           clip-path="url(#clipPath22)"
           id="path68" />
        <path
           d="m 354.117,359.922 227.789,-30.945 v -7.68 l -227.812,38.605 0.023,0.02"
           style="fill:#100f0d;fill-opacity:1;fill-rule:nonzero;stroke:none"
           transform="scale(1.3333333)"
           clip-path="url(#clipPath23)"
           id="path69" />
        <path
           d="m 436.945,367.059 2.336,2.515 17.973,0.571 7.211,-8.207 -25.277,-11.2 -6.719,6.399 -9.602,3.199 2.266,8.789 3.922,0.125 7.89,-2.191"
           style="fill:#100f0d;fill-opacity:1;fill-rule:nonzero;stroke:none"
           transform="scale(1.3333333)"
           clip-path="url(#clipPath24)"
           id="path70" />
        <path
           d="m 425.426,370.258 0.301,-0.082 -0.325,-0.016 0.024,0.098"
           style="fill:#100f0d;fill-opacity:1;fill-rule:nonzero;stroke:none"
           transform="scale(1.3333333)"
           clip-path="url(#clipPath25)"
           id="path71" />
        <path
           d="m 441.105,371.539 14.083,0.957 0.781,-0.891 -15.481,-0.734 0.617,0.668"
           style="fill:#100f0d;fill-opacity:1;fill-rule:nonzero;stroke:none"
           transform="scale(1.3333333)"
           clip-path="url(#clipPath26)"
           id="path72" />
        <path
           d="m 425.402,370.16 0.325,0.016 30.242,1.429 100.019,4.731 -4.16,-3.199 -94.574,-2.992 -17.973,-0.571 -10.226,-0.324 -3.922,-0.125 -63.16,-2 0.019,0.035 63.41,3"
           style="fill:#100f0d;fill-opacity:1;fill-rule:nonzero;stroke:none"
           transform="scale(1.3333333)"
           clip-path="url(#clipPath27)"
           id="path73" />
        <path
           d="m 399.371,385.449 1.125,-1.562 10.621,4.59 37.348,9.621 1.601,-10.879 -81.671,-11.434 c -0.196,0.512 -0.399,1.024 -0.61,1.527 l 31.586,8.137"
           style="fill:#100f0d;fill-opacity:1;fill-rule:nonzero;stroke:none"
           transform="scale(1.3333333)"
           clip-path="url(#clipPath28)"
           id="path74" />
        <path
           d="m 399.371,385.449 -1.379,1.914 -9.609,-1.777 -2.668,4.844 9.695,7.191 25.524,4.359 0.402,-6.136 -4.199,-4.766 -6.02,-2.601 -10.621,-4.59 -1.125,1.562"
           style="fill:#100f0d;fill-opacity:1;fill-rule:nonzero;stroke:none"
           transform="scale(1.3333333)"
           clip-path="url(#clipPath29)"
           id="path75" />
        <path
           d="m 418.668,416.359 -2.984,-6.058 -50.485,-27.75 c -0.152,0.261 -0.297,0.527 -0.453,0.785 l 53.922,33.023"
           style="fill:#100f0d;fill-opacity:1;fill-rule:nonzero;stroke:none"
           transform="scale(1.3333333)"
           clip-path="url(#clipPath30)"
           id="path76" />
        <path
           d="m 336.906,366.859 6.598,5.153 0.269,-0.184 -6.867,-4.969"
           style="fill:#100f0d;fill-opacity:1;fill-rule:nonzero;stroke:none"
           transform="scale(1.3333333)"
           clip-path="url(#clipPath31)"
           id="path77" />
        <path
           d="m 420.188,431.898 2.757,-2.761 -59.816,-43.297 c -0.223,0.324 -0.449,0.648 -0.68,0.965 l 57.739,45.093"
           style="fill:#100f0d;fill-opacity:1;fill-rule:nonzero;stroke:none"
           transform="scale(1.3333333)"
           clip-path="url(#clipPath32)"
           id="path78" />
        <path
           d="m 404.945,427.699 -2.757,-6.242 -42.512,-31.199 c -0.168,0.187 -0.336,0.375 -0.504,0.558 l 45.773,36.883"
           style="fill:#100f0d;fill-opacity:1;fill-rule:nonzero;stroke:none"
           transform="scale(1.3333333)"
           clip-path="url(#clipPath33)"
           id="path79" />
        <path
           d="m 273.551,413.066 4.301,4.782 4.781,-2.153 2.39,2.391 4.778,-2.867 1.914,-6.453 -4.543,-2.868 h -6.949 l -5.7,5.219 -0.972,1.949"
           style="fill:#100f0d;fill-opacity:1;fill-rule:nonzero;stroke:none"
           transform="scale(1.3333333)"
           clip-path="url(#clipPath34)"
           id="path80" />
        <path
           d="m 229.578,442.941 5.02,4.778 62.933,-57.688 c -0.234,-0.265 -0.465,-0.543 -0.691,-0.816 l -67.262,53.726"
           style="fill:#100f0d;fill-opacity:1;fill-rule:nonzero;stroke:none"
           transform="scale(1.3333333)"
           clip-path="url(#clipPath35)"
           id="path81" />
        <path
           d="m 234.121,412.828 0.238,3.106 57.559,-33.883 c -0.066,-0.121 -0.129,-0.242 -0.195,-0.367 l -57.602,31.144"
           style="fill:#100f0d;fill-opacity:1;fill-rule:nonzero;stroke:none"
           transform="scale(1.3333333)"
           clip-path="url(#clipPath36)"
           id="path82" />
        <path
           d="m 255.148,389.648 -0.476,3.582 36.738,-12.136 c -0.172,-0.324 -0.344,-0.653 -0.508,-0.981 l -35.754,9.535"
           style="fill:#100f0d;fill-opacity:1;fill-rule:nonzero;stroke:none"
           transform="scale(1.3333333)"
           clip-path="url(#clipPath37)"
           id="path83" />
        <path
           d="m 243.918,399.445 v -4.3 l -12.664,-0.719 7.406,7.172 5.258,-2.153"
           style="fill:#100f0d;fill-opacity:1;fill-rule:nonzero;stroke:none"
           transform="scale(1.3333333)"
           clip-path="url(#clipPath38)"
           id="path84" />
        <path
           d="m 211.418,417.605 -7.172,-4.539 -2.629,8.606 7.305,10.043 0.344,0.469 2.39,-6.692 4.539,-0.238 2.867,-3.106 1.438,-4.543 -6.934,-2.625 -2.148,2.625"
           style="fill:#100f0d;fill-opacity:1;fill-rule:nonzero;stroke:none"
           transform="scale(1.3333333)"
           clip-path="url(#clipPath39)"
           id="path85" />
        <path
           d="m 183.695,401.355 -0.718,3.586 107.156,-26.449 c -0.09,-0.199 -0.172,-0.402 -0.262,-0.601 l -106.176,23.464"
           style="fill:#100f0d;fill-opacity:1;fill-rule:nonzero;stroke:none"
           transform="scale(1.3333333)"
           clip-path="url(#clipPath40)"
           id="path86" />
        <path
           d="m 146.895,389.887 -0.243,3.105 141.684,-19.129 c -0.024,-0.066 -0.051,-0.136 -0.07,-0.203 l -141.371,16.227"
           style="fill:#100f0d;fill-opacity:1;fill-rule:nonzero;stroke:none"
           transform="scale(1.3333333)"
           clip-path="url(#clipPath41)"
           id="path87" />
        <path
           d="m 199.469,376.504 v 2.867 l 20.551,1.91 -13.145,-10.273 -7.406,5.496"
           style="fill:#100f0d;fill-opacity:1;fill-rule:nonzero;stroke:none"
           transform="scale(1.3333333)"
           clip-path="url(#clipPath42)"
           id="path88" />
        <path
           d="m 252.762,366.465 -0.516,-0.926 -13.211,-0.531 -2.765,4.566 7.648,5.496 8.363,1.434 2.629,-4.301 h 5.258 l -0.563,-6.367 -4.566,-0.184 -2.277,0.813"
           style="fill:#100f0d;fill-opacity:1;fill-rule:nonzero;stroke:none"
           transform="scale(1.3333333)"
           clip-path="url(#clipPath43)"
           id="path89" />
        <path
           d="m 259.453,364.074 -1.726,0.617 1.789,0.118 -0.063,-0.735"
           style="fill:#100f0d;fill-opacity:1;fill-rule:nonzero;stroke:none"
           transform="scale(1.3333333)"
           clip-path="url(#clipPath44)"
           id="path90" />
        <path
           d="m 250.371,362.164 -9.32,-0.476 -1.11,1.832 11.606,0.765 -1.176,-2.121"
           style="fill:#100f0d;fill-opacity:1;fill-rule:nonzero;stroke:none"
           transform="scale(1.3333333)"
           clip-path="url(#clipPath45)"
           id="path91" />
        <path
           d="m 259.516,364.809 -1.789,-0.118 -6.18,-0.406 -68.328,-4.512 2.867,3.11 52.949,2.125 13.211,0.531 2.793,0.113 4.566,0.184 27.188,1.094 0.121,-0.313 -27.398,-1.808"
           style="fill:#100f0d;fill-opacity:1;fill-rule:nonzero;stroke:none"
           transform="scale(1.3333333)"
           clip-path="url(#clipPath46)"
           id="path92" />
        <path
           d="m 299.121,367.422 -11.906,-0.785 1.379,0.363 10.527,0.422"
           style="fill:#100f0d;fill-opacity:1;fill-rule:nonzero;stroke:none"
           transform="scale(1.3333333)"
           clip-path="url(#clipPath47)"
           id="path93" />
        <path
           d="m 245.828,350.934 -3.582,3.105 56.637,8.844 -53.055,-11.949"
           style="fill:#100f0d;fill-opacity:1;fill-rule:nonzero;stroke:none"
           transform="scale(1.3333333)"
           clip-path="url(#clipPath48)"
           id="path94" />
        <path
           d="m 262.32,339.938 0.953,2.39 37.762,18.164 -38.715,-20.554"
           style="fill:#100f0d;fill-opacity:1;fill-rule:nonzero;stroke:none"
           transform="scale(1.3333333)"
           clip-path="url(#clipPath49)"
           id="path95" />
        <path
           d="m 270.684,332.055 2.152,4.3 14.488,9.731 c 0.106,-0.418 0.211,-0.836 0.324,-1.25 l -16.964,-12.781"
           style="fill:#100f0d;fill-opacity:1;fill-rule:nonzero;stroke:none"
           transform="scale(1.3333333)"
           clip-path="url(#clipPath50)"
           id="path96" />
        <path
           d="m 305.574,358.34 -7.265,-5.473 -0.821,0.043 8.086,5.43"
           style="fill:#100f0d;fill-opacity:1;fill-rule:nonzero;stroke:none"
           transform="scale(1.3333333)"
           clip-path="url(#clipPath51)"
           id="path97" />
        <path
           d="m 351.227,357.625 v 9.187 l -7.454,5.016 -0.269,0.184 -5.93,3.984 -18.617,-15.887 -13.156,11.418 -17.207,-4.527 -1.379,-0.363 -0.281,-0.075 -0.02,0.055 -0.121,0.313 -0.148,0.386 c 0.402,2.172 0.949,4.289 1.621,6.344 0.019,0.067 0.046,0.137 0.07,0.203 0.453,1.375 0.969,2.719 1.535,4.028 0.09,0.199 0.172,0.402 0.262,0.601 0.246,0.547 0.504,1.086 0.769,1.621 0.164,0.328 0.336,0.657 0.508,0.981 0.106,0.195 0.207,0.394 0.313,0.59 0.066,0.125 0.129,0.246 0.195,0.367 1.426,2.562 3.078,4.957 4.922,7.164 0.226,0.273 0.457,0.551 0.691,0.816 7.817,8.938 18.891,14.512 31.172,14.512 11.918,0 22.695,-5.254 30.469,-13.727 0.168,-0.183 0.336,-0.371 0.504,-0.558 0.976,-1.102 1.898,-2.254 2.773,-3.453 0.231,-0.317 0.457,-0.641 0.68,-0.965 0.562,-0.817 1.105,-1.649 1.617,-2.504 0.156,-0.258 0.301,-0.524 0.453,-0.785 0.961,-1.68 1.828,-3.426 2.586,-5.239 0.211,-0.503 0.414,-1.015 0.61,-1.527 0.492,-1.301 0.937,-2.625 1.32,-3.98 l -6.32,-2.262 -1.403,-2.383 -0.019,-0.035 -1.063,-1.805 -6.793,-5.398 -0.023,-0.02 -2.867,-2.277"
           style="fill:#100f0d;fill-opacity:1;fill-rule:nonzero;stroke:none"
           transform="scale(1.3333333)"
           clip-path="url(#clipPath52)"
           id="path98" />
        <path
           d="m 328.703,311.949 c -19.363,0 -35.726,13.856 -41.055,32.887 -0.113,0.414 -0.218,0.832 -0.324,1.25 -0.051,0.207 -0.109,0.406 -0.156,0.613 l 5.973,6.457 4.347,-0.246 0.821,-0.043 12.457,-0.703 17.375,8.688 9.929,-11.914 -4.468,-10.922 13.656,1.488 1.984,-8.192 8.317,0.098 1.648,0.02 6.918,0.078 c -0.914,-1.391 -1.937,-2.719 -3.043,-3.988 -0.316,-0.364 -0.648,-0.715 -0.977,-1.067 -2.488,-2.66 -5.363,-5.019 -8.515,-7.023 -0.211,-0.137 -0.422,-0.274 -0.637,-0.407 -0.105,-0.066 -0.211,-0.136 -0.316,-0.203 -2.75,-1.656 -5.684,-3.039 -8.719,-4.125 -0.43,-0.156 -0.859,-0.308 -1.293,-0.453 -0.086,-0.027 -0.172,-0.062 -0.258,-0.09 -4.457,-1.425 -9.094,-2.203 -13.664,-2.203"
           style="fill:#100f0d;fill-opacity:1;fill-rule:nonzero;stroke:none"
           transform="scale(1.3333333)"
           clip-path="url(#clipPath53)"
           id="path99" />
      </g>
    </g>
  </g>
</svg>
