<?xml version="1.0" encoding="UTF-8" standalone="no"?>
<!-- Created with Inkscape (http://www.inkscape.org/) -->

<svg
   version="1.1"
   id="svg1"
   width="967.17108"
   height="967.1377"
   viewBox="0 0 967.17108 967.1377"
   sodipodi:docname="ghs_serious_health_hazard.pdf"
   xmlns:inkscape="http://www.inkscape.org/namespaces/inkscape"
   xmlns:sodipodi="http://sodipodi.sourceforge.net/DTD/sodipodi-0.dtd"
   xmlns="http://www.w3.org/2000/svg"
   xmlns:svg="http://www.w3.org/2000/svg">
  <defs
     id="defs1">
    <clipPath
       clipPathUnits="userSpaceOnUse"
       id="clipPath2">
      <path
         d="M 0,0 H 726 V 726 H 0 Z"
         id="path2" />
    </clipPath>
    <clipPath
       clipPathUnits="userSpaceOnUse"
       id="clipPath3">
      <path
         d="m 1.418,1.418 h 723 v 723 h -723 z"
         transform="scale(1.3333333)"
         id="path3" />
    </clipPath>
    <clipPath
       clipPathUnits="userSpaceOnUse"
       id="clipPath5">
      <path
         d="M 2.855,2.836 H 722.562 V 722.5 H 2.855 Z"
         transform="scale(1.3333333)"
         id="path5" />
    </clipPath>
    <clipPath
       clipPathUnits="userSpaceOnUse"
       id="clipPath6">
      <path
         d="M 0,0 H 726 V 726 H 0 Z"
         id="path6" />
    </clipPath>
    <clipPath
       clipPathUnits="userSpaceOnUse"
       id="clipPath7">
      <path
         d="M 0,0 H 726 V 726 H 0 Z"
         id="path7" />
    </clipPath>
    <clipPath
       clipPathUnits="userSpaceOnUse"
       id="clipPath8">
      <path
         d="M 0,0 H 726 V 726 H 0 Z"
         id="path8" />
    </clipPath>
    <clipPath
       clipPathUnits="userSpaceOnUse"
       id="clipPath9">
      <path
         d="M 0,0 H 726 V 726 H 0 Z"
         id="path9" />
    </clipPath>
    <clipPath
       clipPathUnits="userSpaceOnUse"
       id="clipPath10">
      <path
         d="M 0,0 H 726 V 726 H 0 Z"
         id="path10" />
    </clipPath>
    <clipPath
       clipPathUnits="userSpaceOnUse"
       id="clipPath11">
      <path
         d="M 0,0 H 726 V 726 H 0 Z"
         id="path11" />
    </clipPath>
    <clipPath
       clipPathUnits="userSpaceOnUse"
       id="clipPath12">
      <path
         d="M 0,0 H 726 V 726 H 0 Z"
         id="path12" />
    </clipPath>
    <clipPath
       clipPathUnits="userSpaceOnUse"
       id="clipPath13">
      <path
         d="M 0,0 H 726 V 726 H 0 Z"
         id="path13" />
    </clipPath>
    <clipPath
       clipPathUnits="userSpaceOnUse"
       id="clipPath14">
      <path
         d="M 0,0 H 726 V 726 H 0 Z"
         id="path14" />
    </clipPath>
    <clipPath
       clipPathUnits="userSpaceOnUse"
       id="clipPath15">
      <path
         d="M 0,0 H 726 V 726 H 0 Z"
         id="path15" />
    </clipPath>
    <clipPath
       clipPathUnits="userSpaceOnUse"
       id="clipPath16">
      <path
         d="M 0,0 H 726 V 726 H 0 Z"
         id="path16" />
    </clipPath>
    <clipPath
       clipPathUnits="userSpaceOnUse"
       id="clipPath17">
      <path
         d="M 0,0 H 726 V 726 H 0 Z"
         id="path17" />
    </clipPath>
    <clipPath
       clipPathUnits="userSpaceOnUse"
       id="clipPath18">
      <path
         d="M 0,0 H 726 V 726 H 0 Z"
         id="path18" />
    </clipPath>
    <clipPath
       clipPathUnits="userSpaceOnUse"
       id="clipPath19">
      <path
         d="M 0,0 H 726 V 726 H 0 Z"
         id="path19" />
    </clipPath>
    <clipPath
       clipPathUnits="userSpaceOnUse"
       id="clipPath20">
      <path
         d="m 1.418,1.418 h 723 v 723 h -723 z"
         transform="scale(1.3333333)"
         id="path20" />
    </clipPath>
    <clipPath
       clipPathUnits="userSpaceOnUse"
       id="clipPath35">
      <path
         d="m 2.855,2.559 h 720 v 720 h -720 z"
         transform="scale(1.3333333)"
         id="path35" />
    </clipPath>
  </defs>
  <sodipodi:namedview
     id="namedview1"
     pagecolor="#ffffff"
     bordercolor="#666666"
     borderopacity="1.0"
     inkscape:showpageshadow="2"
     inkscape:pageopacity="0.0"
     inkscape:pagecheckerboard="0"
     inkscape:deskcolor="#d1d1d1">
    <inkscape:page
       x="0"
       y="0"
       inkscape:label="1"
       id="page1"
       width="967.17108"
       height="967.1377"
       margin="0"
       bleed="0" />
  </sodipodi:namedview>
  <g
     id="g1"
     inkscape:groupmode="layer"
     inkscape:label="1">
    <path
       id="path1"
       d="M 2.836,362.676 362.688,722.539 722.543,362.676 362.688,2.816 2.836,362.676"
       style="fill:#ffffff;fill-opacity:1;fill-rule:nonzero;stroke:none"
       transform="scale(1.3333333)" />
    <g
       id="g5"
       clip-path="url(#clipPath5)">
      <g
         clip-path="url(#clipPath3)"
         id="g4">
        <path
           d="M 665.539,362.691 C 640.605,387.629 387.641,640.598 362.703,665.539 337.77,640.598 84.809,387.629 59.875,362.691 84.809,337.758 337.77,84.793 362.703,59.859 387.641,84.793 640.605,337.758 665.539,362.691 Z m -662.684,0 L 362.703,722.559 722.562,362.691 362.703,2.836 2.855,362.691"
           style="fill:#ef2e32;fill-opacity:1;fill-rule:nonzero;stroke:none"
           transform="scale(1.3333333)"
           clip-path="url(#clipPath2)"
           id="path4" />
      </g>
    </g>
    <g
       id="g35"
       clip-path="url(#clipPath35)">
      <g
         clip-path="url(#clipPath20)"
         id="g34">
        <path
           d="m 325.449,396.52 c -2.879,0 -5.215,2.335 -5.215,5.214 0,2.879 2.336,5.215 5.215,5.215 2.883,0 5.215,-2.336 5.215,-5.215 0,-2.879 -2.332,-5.214 -5.215,-5.214"
           style="fill:#100f0d;fill-opacity:1;fill-rule:nonzero;stroke:none"
           transform="scale(1.3333333)"
           clip-path="url(#clipPath6)"
           id="path21" />
        <path
           d="m 404.465,446.57 c 0,-3.004 -2.434,-5.441 -5.442,-5.441 -3.003,0 -5.441,2.437 -5.441,5.441 0,0.688 0.133,1.344 0.367,1.95 -1.972,0.277 -3.496,1.953 -3.496,4.003 0,0.575 0.121,1.122 0.34,1.618 0.566,1.433 1.961,2.453 3.598,2.453 l 0.105,-0.012 0.012,0.004 c 2.25,0 4.066,-1.82 4.066,-4.063 0,-0.183 -0.027,-0.359 -0.054,-0.535 0.168,0.016 0.335,0.024 0.503,0.024 3.008,0 5.442,-2.438 5.442,-5.442"
           style="fill:#100f0d;fill-opacity:1;fill-rule:nonzero;stroke:none"
           transform="scale(1.3333333)"
           clip-path="url(#clipPath7)"
           id="path22" />
        <path
           d="m 351.309,453.07 c 0,2.805 2.273,5.078 5.078,5.078 2.804,0 5.074,-2.273 5.074,-5.078 0,-2.8 -2.27,-5.074 -5.074,-5.074 -2.805,0 -5.078,2.274 -5.078,5.074"
           style="fill:#100f0d;fill-opacity:1;fill-rule:nonzero;stroke:none"
           transform="scale(1.3333333)"
           clip-path="url(#clipPath8)"
           id="path23" />
        <path
           d="m 334.988,426.605 c 2.805,0 5.078,-2.273 5.078,-5.078 0,-2.804 -2.273,-5.078 -5.078,-5.078 -1.398,0 -2.664,0.571 -3.586,1.485 -0.382,-1.61 -1.82,-2.805 -3.543,-2.805 -2.019,0 -3.656,1.633 -3.656,3.652 0,2.02 1.637,3.657 3.656,3.657 0.774,0 1.489,-0.243 2.079,-0.657 0.136,2.684 2.335,4.824 5.05,4.824"
           style="fill:#100f0d;fill-opacity:1;fill-rule:nonzero;stroke:none"
           transform="scale(1.3333333)"
           clip-path="url(#clipPath9)"
           id="path24" />
        <path
           d="m 390.914,408.105 c -0.894,0 -1.734,0.219 -2.48,0.602 -0.5,-1.684 -2.043,-2.918 -3.891,-2.918 -2.254,0 -4.082,1.828 -4.082,4.082 0,2.254 1.828,4.082 4.082,4.082 0.324,0 0.641,-0.051 0.941,-0.121 0.149,2.871 2.52,5.16 5.43,5.16 0.398,0 0.785,-0.047 1.16,-0.129 2.528,-0.289 4.5,-2.41 4.5,-5.015 0,-0.926 -0.265,-1.782 -0.699,-2.532 -0.852,-1.89 -2.75,-3.211 -4.961,-3.211"
           style="fill:#100f0d;fill-opacity:1;fill-rule:nonzero;stroke:none"
           transform="scale(1.3333333)"
           clip-path="url(#clipPath10)"
           id="path25" />
        <path
           d="m 371.336,375.719 c 0,-2.805 -2.274,-5.078 -5.074,-5.078 -2.805,0 -5.078,2.273 -5.078,5.078 0,1.937 1.097,3.601 2.695,4.457 -1.524,0.441 -2.645,1.828 -2.645,3.496 0,2.019 1.637,3.656 3.657,3.656 2.015,0 3.652,-1.637 3.652,-3.656 0,-1.219 -0.602,-2.293 -1.52,-2.957 2.438,-0.371 4.313,-2.457 4.313,-4.996"
           style="fill:#100f0d;fill-opacity:1;fill-rule:nonzero;stroke:none"
           transform="scale(1.3333333)"
           clip-path="url(#clipPath11)"
           id="path26" />
        <path
           d="m 326.762,448.734 c -2.246,0 -4.063,1.821 -4.063,4.063 0,2.242 1.817,4.062 4.063,4.062 2.242,0 4.058,-1.82 4.058,-4.062 0,-2.242 -1.816,-4.063 -4.058,-4.063"
           style="fill:#100f0d;fill-opacity:1;fill-rule:nonzero;stroke:none"
           transform="scale(1.3333333)"
           clip-path="url(#clipPath12)"
           id="path27" />
        <path
           d="m 355.473,396.289 c 0,2.016 1.636,3.656 3.656,3.656 2.019,0 3.656,-1.64 3.656,-3.656 0,-2.019 -1.637,-3.656 -3.656,-3.656 -2.02,0 -3.656,1.637 -3.656,3.656"
           style="fill:#100f0d;fill-opacity:1;fill-rule:nonzero;stroke:none"
           transform="scale(1.3333333)"
           clip-path="url(#clipPath13)"
           id="path28" />
        <path
           d="m 372.273,494.762 c 0,-2.285 -1.363,-4.25 -3.316,-5.137 0.336,-0.59 0.543,-1.262 0.543,-1.988 0,-2.246 -1.82,-4.063 -4.062,-4.063 -2.243,0 -4.063,1.817 -4.063,4.063 0,1.211 0.543,2.285 1.383,3.031 -1.086,1.027 -1.766,2.48 -1.766,4.094 0,3.117 2.524,5.64 5.641,5.64 3.113,0 5.64,-2.523 5.64,-5.64"
           style="fill:#100f0d;fill-opacity:1;fill-rule:nonzero;stroke:none"
           transform="scale(1.3333333)"
           clip-path="url(#clipPath14)"
           id="path29" />
        <path
           d="m 358.801,537.371 c 1.347,-1.027 2.226,-2.648 2.226,-4.48 0,-1.911 -0.953,-3.598 -2.41,-4.618 0.821,-0.98 1.313,-2.238 1.313,-3.613 0,-3.113 -2.528,-5.64 -5.641,-5.64 -0.473,0 -0.926,0.066 -1.359,0.171 0.629,-1.308 0.996,-2.769 0.996,-4.32 0,-1.449 -0.321,-2.824 -0.879,-4.066 2.926,-0.211 5.234,-2.641 5.234,-5.621 0,-2.43 -1.535,-4.493 -3.687,-5.286 2.105,-1.824 3.445,-4.511 3.445,-7.519 0,-3.438 -1.746,-6.469 -4.398,-8.258 1.539,-1.75 2.48,-4.039 2.48,-6.555 0,-2.203 -0.726,-4.226 -1.937,-5.871 1.57,-0.562 2.695,-2.047 2.695,-3.812 0,-2.242 -1.817,-4.059 -4.059,-4.059 -1.371,0 -2.578,0.684 -3.312,1.723 -1.824,-2.25 -4.602,-3.688 -7.727,-3.688 -1.457,0 -2.836,0.321 -4.086,0.887 -0.949,-1.773 -2.82,-2.984 -4.972,-2.984 -3.118,0 -5.641,2.527 -5.641,5.644 0,2.832 2.086,5.168 4.805,5.571 -0.016,0.211 -0.039,0.421 -0.043,0.636 -1.723,-1.429 -3.934,-2.289 -6.344,-2.289 -3.625,0 -6.785,1.942 -8.523,4.836 -1.477,-1.621 -3.594,-2.648 -5.961,-2.648 -3.762,0 -6.914,2.582 -7.801,6.07 -1.293,-0.887 -2.86,-1.406 -4.543,-1.406 -4.449,0 -8.059,3.609 -8.059,8.058 0,0.625 0.078,1.227 0.211,1.813 -2.136,-1.949 -4.969,-3.145 -8.09,-3.145 -4.964,0 -9.222,3.008 -11.066,7.297 -1.293,-0.887 -2.856,-1.406 -4.543,-1.406 -4.449,0 -8.059,3.609 -8.059,8.059 0,0.652 0.079,1.281 0.223,1.886 l 97.723,99.278 c 1.277,-0.539 2.172,-1.801 2.172,-3.274 0,-1.394 -0.809,-2.586 -1.977,-3.168 1.383,-0.484 2.379,-1.789 2.379,-3.34 0,-1.464 -0.883,-2.718 -2.148,-3.261 1.25,-0.828 2.074,-2.239 2.074,-3.852 0,-2.195 -1.535,-4.023 -3.59,-4.492 4.094,-2.824 6.781,-7.539 6.781,-12.891 0,-3.3 -1.027,-6.359 -2.773,-8.883 2.816,-1.757 4.691,-4.871 4.691,-8.437 0,-4.023 -2.387,-7.477 -5.82,-9.047"
           style="fill:#100f0d;fill-opacity:1;fill-rule:nonzero;stroke:none"
           transform="scale(1.3333333)"
           clip-path="url(#clipPath15)"
           id="path30" />
        <path
           d="m 468.543,492.93 c -0.969,0 -1.879,0.246 -2.676,0.675 -0.976,-3.351 -4.066,-5.8 -7.73,-5.8 -1.582,0 -3.051,0.465 -4.297,1.25 0.012,-0.207 0.031,-0.41 0.031,-0.621 0,-5.496 -4.453,-9.95 -9.949,-9.95 -1.285,0 -2.512,0.254 -3.641,0.7 -0.144,-2.989 -2.605,-5.368 -5.629,-5.368 -3.113,0 -5.64,2.524 -5.64,5.641 0,0.242 0.019,0.481 0.05,0.719 -1.417,-2.309 -3.957,-3.856 -6.863,-3.856 -0.465,0 -0.914,0.047 -1.355,0.125 -0.063,-5.445 -4.485,-9.836 -9.942,-9.836 -0.554,0 -1.097,0.059 -1.629,0.145 -0.269,-2.863 -2.679,-5.106 -5.613,-5.106 -2.43,0 -4.496,1.54 -5.289,3.696 -0.25,-0.016 -0.5,-0.039 -0.758,-0.039 -1.133,0 -2.226,0.168 -3.269,0.461 -0.965,-2.555 -3.43,-4.379 -6.324,-4.379 -3.739,0 -6.77,3.031 -6.77,6.773 0,1.149 0.289,2.231 0.797,3.184 -0.977,-0.809 -2.223,-1.297 -3.586,-1.297 -3.117,0 -5.641,2.527 -5.641,5.644 0,2.68 1.871,4.918 4.375,5.489 -0.734,1.39 -1.152,2.968 -1.152,4.648 0,3.227 1.543,6.086 3.922,7.902 -0.91,1.696 -1.426,3.633 -1.426,5.692 0,3.191 1.25,6.086 3.277,8.238 -0.664,1.492 -1.039,3.141 -1.039,4.879 0,0.676 0.071,1.328 0.176,1.973 -0.816,-0.567 -1.781,-0.934 -2.832,-1.004 0.688,-0.934 1.102,-2.086 1.102,-3.34 0,-3.113 -2.528,-5.641 -5.641,-5.641 -3.117,0 -5.641,2.528 -5.641,5.641 0,1.496 0.582,2.855 1.532,3.859 -2.364,0.676 -4.094,2.844 -4.094,5.422 0,3.117 2.527,5.641 5.641,5.641 0.179,0 0.351,-0.031 0.523,-0.047 -1.039,1.781 -1.645,3.844 -1.645,6.055 0,4.199 2.149,7.89 5.407,10.043 -4.309,1.832 -7.328,6.101 -7.328,11.078 0,3.609 1.593,6.836 4.109,9.043 -2.606,1.793 -4.316,4.793 -4.316,8.199 0,1.387 0.285,2.707 0.796,3.906 -0.722,1.211 -1.148,2.621 -1.148,4.133 0,1.746 0.562,3.359 1.508,4.68 -0.817,0.648 -1.352,1.64 -1.352,2.769 0,1.219 0.617,2.289 1.551,2.93 -0.973,0.633 -1.617,1.726 -1.617,2.973 0,0.226 0.027,0.445 0.066,0.66 -0.808,0.652 -1.34,1.64 -1.34,2.761 0,1.473 0.895,2.735 2.168,3.274 l 105.461,-97.086 c 0.207,-0.59 0.325,-1.227 0.325,-1.887 0,-3.117 -2.528,-5.644 -5.645,-5.644"
           style="fill:#100f0d;fill-opacity:1;fill-rule:nonzero;stroke:none"
           transform="scale(1.3333333)"
           clip-path="url(#clipPath16)"
           id="path31" />
        <path
           d="m 460.332,383.863 0.004,0.051 c -1.008,-0.246 -2.051,-0.391 -3.137,-0.391 -7.254,0 -13.133,5.879 -13.133,13.133 0,0.68 0.067,1.344 0.168,1.996 -0.773,-0.336 -1.629,-0.527 -2.527,-0.527 -2.074,0 -3.906,1 -5.055,2.543 -1.187,-0.395 -2.457,-0.613 -3.773,-0.613 -6.477,0 -11.742,5.113 -12.012,11.523 -0.414,-0.086 -0.84,-0.133 -1.277,-0.133 -3.485,0 -6.309,2.825 -6.309,6.313 0,1.054 0.266,2.051 0.723,2.926 -1.004,-0.563 -2.156,-0.887 -3.391,-0.887 -3.836,0 -6.941,3.105 -6.941,6.937 0,2.004 0.851,3.801 2.207,5.063 l 0.004,0.074 c -1.613,0.152 -2.942,1.231 -3.457,2.707 -0.203,0.457 -0.321,0.957 -0.321,1.484 0,1.286 0.668,2.411 1.668,3.063 0.692,0.539 1.551,0.871 2.493,0.871 1.746,0 3.222,-1.098 3.808,-2.637 0.949,0.512 2.028,0.809 3.18,0.809 0.519,0 1.023,-0.063 1.512,-0.176 -0.043,0.418 -0.067,0.84 -0.067,1.27 0,1.586 0.313,3.101 0.875,4.492 -2.242,0.523 -3.918,2.527 -3.918,4.926 0,0.742 0.168,1.441 0.449,2.074 0.723,1.832 2.5,3.133 4.59,3.133 1.731,0 3.246,-0.895 4.129,-2.242 0.328,-0.457 0.586,-0.969 0.754,-1.52 1.567,0.746 3.309,1.172 5.156,1.172 0.571,0 1.129,-0.051 1.68,-0.129 -0.328,0.875 -0.516,1.82 -0.516,2.812 0,1.305 0.325,2.528 0.875,3.614 -0.257,-0.051 -0.519,-0.082 -0.793,-0.082 -2.242,0 -4.062,1.82 -4.062,4.062 0,2.246 1.82,4.063 4.062,4.063 2.024,0 3.688,-1.485 3.997,-3.422 1.093,4.305 4.984,7.492 9.628,7.492 2.086,0 4.02,-0.645 5.618,-1.742 0.48,3.996 3.875,7.09 7.996,7.09 2.101,0 4.008,-0.809 5.441,-2.125 -0.015,0.242 -0.039,0.484 -0.039,0.73 0,5.496 4.457,9.949 9.949,9.949 1.883,0 3.637,-0.531 5.137,-1.437 -0.754,1.023 -1.203,2.285 -1.203,3.656 0,3.426 2.781,6.203 6.207,6.203 2.07,0 3.902,-1.019 5.027,-2.578 l 0.004,0.004 53.875,-49.59 v -36.316 c 0,-11.016 -11.859,-24.781 -26.191,-29.684 -3.215,-1.101 -24.453,-8.035 -24.453,-8.035 -2.446,0.191 -4.438,1.996 -4.911,4.352 -0.746,-0.383 -1.589,-0.602 -2.484,-0.602 -3.004,0 -5.441,2.438 -5.441,5.441 0,0.297 0.027,0.586 0.074,0.868 -1.656,-1.235 -3.703,-1.973 -5.93,-1.973 -5.492,0 -9.949,4.453 -9.949,9.945"
           style="fill:#100f0d;fill-opacity:1;fill-rule:nonzero;stroke:none"
           transform="scale(1.3333333)"
           clip-path="url(#clipPath17)"
           id="path32" />
        <path
           d="m 348.105,375.348 -0.023,0.214 -0.254,-0.136 c 0.094,-0.024 0.184,-0.055 0.277,-0.078 z M 287.578,213.875 c 0,29.695 11.098,71.359 32.746,96.902 l -2.64,27.09 -58.067,21.008 c 0.93,4.535 4.942,7.941 9.746,7.941 0.848,0 1.668,-0.117 2.453,-0.316 1.11,4.285 4.989,7.449 9.618,7.449 0.492,0 0.968,-0.047 1.437,-0.113 1.141,4.238 5,7.363 9.598,7.363 1.355,0 2.644,-0.273 3.82,-0.761 0.316,3.191 3.004,5.683 6.277,5.683 0.645,0 1.27,-0.098 1.856,-0.277 0.805,4.683 4.879,8.25 9.793,8.25 3.824,0 7.137,-2.164 8.805,-5.324 1.668,1.269 3.746,2.031 6.007,2.031 1.465,0 2.852,-0.324 4.102,-0.891 1.297,2.746 3.703,4.863 6.637,5.781 -0.121,0.364 -0.204,0.743 -0.204,1.149 0,2.015 1.637,3.652 3.657,3.652 2.019,0 3.656,-1.637 3.656,-3.652 0,-0.453 -0.094,-0.879 -0.242,-1.278 4.265,-1.496 7.324,-5.542 7.324,-10.32 0,-2.187 -0.641,-4.215 -1.746,-5.922 1.785,-0.238 3.168,-1.754 3.168,-3.605 0,-1.578 -1.004,-2.91 -2.406,-3.418 1.527,-1.75 2.461,-4.027 2.461,-6.531 0,-0.477 -0.047,-0.946 -0.11,-1.407 3.75,-1.421 6.418,-5.043 6.418,-9.293 0,-2.656 -1.058,-5.054 -2.758,-6.836 0.313,0.086 0.633,0.145 0.969,0.145 2.016,0 3.652,-1.637 3.652,-3.656 0,-2.02 -1.636,-3.653 -3.652,-3.653 -0.805,0 -1.539,0.262 -2.141,0.7 -0.734,-1.352 -2.05,-2.336 -3.621,-2.598 1.231,-2.012 1.954,-4.367 1.954,-6.902 0,-1.637 -0.313,-3.2 -0.856,-4.653 3.77,-1.414 6.453,-5.039 6.453,-9.304 0,-2.481 -0.914,-4.743 -2.418,-6.489 2.766,-0.914 4.758,-3.511 4.758,-6.582 0,-2.523 -1.348,-4.722 -3.359,-5.937 0.941,-1.184 1.504,-2.68 1.504,-4.309 0,-0.414 -0.043,-0.82 -0.114,-1.219 1.442,-0.066 2.77,-0.554 3.852,-1.367 -0.082,0.426 -0.125,0.864 -0.125,1.309 0,2.465 1.285,4.621 3.215,5.851 -0.383,1.059 -0.602,2.192 -0.602,3.383 0,4.051 2.426,7.524 5.895,9.078 -0.321,1.137 -0.504,2.332 -0.504,3.571 0,4.207 1.984,7.945 5.062,10.347 -2.695,1.18 -4.582,3.867 -4.582,6.996 0,3.125 1.879,5.809 4.567,6.989 -0.539,0.929 -0.852,2.011 -0.852,3.164 0,2.523 1.484,4.695 3.629,5.703 -0.617,1.523 -0.965,3.187 -0.965,4.93 0,2.101 0.504,4.082 1.383,5.843 -0.418,0.477 -0.809,0.977 -1.156,1.508 -0.664,-0.672 -1.582,-1.086 -2.598,-1.086 -2.02,0 -3.656,1.633 -3.656,3.656 0,2.016 1.636,3.653 3.656,3.653 0.172,0 0.336,-0.028 0.5,-0.051 -0.023,0.336 -0.051,0.672 -0.051,1.016 0,2.535 0.731,4.89 1.973,6.894 -1.063,2.02 -1.668,4.317 -1.668,6.758 0,3.738 1.418,7.133 3.734,9.711 -0.644,1.035 -1.023,2.254 -1.023,3.562 0,3.739 3.031,6.77 6.769,6.77 3.329,0 6.09,-2.406 6.657,-5.566 1.832,-0.196 3.554,-0.739 5.117,-1.547 0.805,1.738 2.555,2.953 4.598,2.953 2.804,0 5.078,-2.274 5.078,-5.078 0,-2.125 -1.309,-3.938 -3.157,-4.696 0.512,-1.105 0.875,-2.293 1.102,-3.527 1.098,0.293 2.242,0.465 3.43,0.465 0.152,0 0.297,-0.016 0.449,-0.02 0.894,2.285 3.113,3.907 5.719,3.907 2.003,0 3.781,-0.965 4.902,-2.45 0.629,2.309 2.734,4.008 5.242,4.008 1.902,0 3.574,-0.976 4.547,-2.453 1.055,0.648 2.289,1.027 3.621,1.027 3.832,0 6.938,-3.105 6.938,-6.937 0,-1.281 -0.352,-2.477 -0.957,-3.508 0.527,0.172 1.089,0.266 1.671,0.266 3.008,0 5.446,-2.434 5.446,-5.442 0,-0.254 -0.024,-0.504 -0.059,-0.75 1.152,2.227 3.477,3.754 6.16,3.754 3.785,0 6.856,-3.031 6.934,-6.797 1.808,-1.117 3.066,-3.043 3.266,-5.277 0.355,0.113 0.722,0.191 1.113,0.191 2.019,0 3.656,-1.636 3.656,-3.656 0,-0.422 -0.074,-0.824 -0.203,-1.199 l -5.551,-1.789 -57.969,-18.672 -0.234,-24.754 c 8.805,-9.476 15.672,-21.703 20.645,-34.957 9.425,-25.125 14.507,-51.676 14.507,-65.582 0,-36.016 -34.398,-82.723 -76.828,-82.723 -42.429,0 -76.828,37.036 -76.828,82.723"
           style="fill:#100f0d;fill-opacity:1;fill-rule:nonzero;stroke:none"
           transform="scale(1.3333333)"
           clip-path="url(#clipPath18)"
           id="path33" />
        <path
           d="m 272.18,476.195 c 0,-0.394 -0.028,-0.781 -0.071,-1.16 1.477,1.824 3.731,2.992 6.262,2.992 4.453,0 8.059,-3.605 8.059,-8.058 0,-1.203 -0.27,-2.34 -0.742,-3.367 1.613,-0.563 2.988,-1.629 3.953,-3.004 1.023,1.043 2.445,1.691 4.023,1.691 3.117,0 5.641,-2.527 5.641,-5.641 0,-1.621 -0.684,-3.074 -1.782,-4.105 2.063,-1.004 3.633,-2.863 4.25,-5.113 1.297,1.422 3.094,2.382 5.114,2.593 -0.813,0.977 -1.305,2.235 -1.305,3.61 0,3.113 2.523,5.64 5.641,5.64 3.113,0 5.64,-2.527 5.64,-5.64 0,-2.551 -1.695,-4.703 -4.019,-5.403 1.793,-1.476 2.937,-3.718 2.937,-6.222 0,-0.738 -0.105,-1.449 -0.293,-2.129 0.242,0.023 0.489,0.039 0.739,0.039 1.136,0 2.214,-0.238 3.195,-0.66 0.086,2.168 1.859,3.902 4.047,3.902 2.242,0 4.062,-1.816 4.062,-4.062 0,-2.188 -1.738,-3.961 -3.906,-4.043 0.422,-0.981 0.66,-2.059 0.66,-3.196 0,-0.691 -0.105,-1.359 -0.269,-1.996 2.019,0 3.656,-1.64 3.656,-3.656 0,-2.019 -1.637,-3.656 -3.656,-3.656 -0.106,0 -0.204,0.023 -0.309,0.031 -0.207,-3.043 -1.773,-5.707 -4.105,-7.387 0.015,-0.23 0.035,-0.465 0.035,-0.703 0,-5.496 -4.453,-9.945 -9.949,-9.945 -1.915,0 -3.696,0.547 -5.215,1.484 0.218,-0.574 0.343,-1.195 0.343,-1.843 0,-2.883 -2.336,-5.215 -5.214,-5.215 -0.512,0 -1.008,0.074 -1.477,0.215 0.07,-0.469 0.113,-0.942 0.113,-1.43 0,-5.496 -4.449,-9.946 -9.945,-9.946 -1.699,0 -3.301,0.426 -4.699,1.18 -1.262,-2.047 -3.235,-3.609 -5.582,-4.316 0.3,-0.66 0.472,-1.391 0.472,-2.16 0,-2.879 -2.336,-5.215 -5.214,-5.215 -0.676,0 -1.321,0.133 -1.915,0.367 -0.039,-5.465 -4.472,-9.883 -9.945,-9.883 -0.883,0 -1.73,0.129 -2.547,0.344 -0.793,-1.867 -2.644,-3.172 -4.797,-3.172 -1.273,0 -2.437,0.457 -3.343,1.215 -0.348,-2.543 -2.52,-4.504 -5.161,-4.504 -1,0 -1.933,0.285 -2.726,0.773 -13.797,5.286 -25.25,9.696 -29.621,11.442 -9.738,3.89 -16.985,14.297 -16.985,24.613 v 33.227 l 53.829,54.648 c 0.55,0.117 1.121,0.18 1.707,0.18 2.988,0 5.589,-1.633 6.98,-4.047 1.086,0.406 2.258,0.641 3.488,0.641 5.493,0 9.946,-4.454 9.946,-9.95"
           style="fill:#100f0d;fill-opacity:1;fill-rule:nonzero;stroke:none"
           transform="scale(1.3333333)"
           clip-path="url(#clipPath19)"
           id="path34" />
      </g>
    </g>
  </g>
</svg>
