<svg xmlns="http://www.w3.org/2000/svg" aria-hidden="true" class="bead" viewBox="16.278 0 45.361 45.361"><style>:root{color:#000}.bead-dot{stroke:#000;stroke-width:0.35;stroke-opacity:0.8}.bead-absent{opacity:0.2}@media (prefers-color-scheme:dark){:root{color:#fff}}</style><path fill="none" stroke="#000" stroke-linecap="round" stroke-linejoin="round" stroke-width="1.316" d="m45.376 23.958-.132.365-.064.391-.123.4-.112.727-.301.846-.387.851-.343.861-.183.762-.106.712-.004.733-.058.716.112.635.247.464.377.287.466.142.545.011.48.009.487-.106.529-.21.603-.278.565-.34.266-.205.27-.153.249-.138.263-.098"/><path fill="none" stroke="#b3b300" stroke-linecap="round" stroke-linejoin="round" stroke-width="0.9637" d="m44.63 22.854.746 1.104-.132.365-.064.391-.123.4-.112.727-.301.846-.387.851-.343.861-.183.762-.106.712-.004.733-.058.716.112.635.247.464.377.287.466.142.545.011.48.009.487-.106.529-.21.603-.278.565-.34.266-.205.27-.153.249-.138.263-.098"/><path fill="none" stroke="none" stroke-linecap="round" stroke-linejoin="round" d="m44.56 22.625 1.038-.098.859.853-.79.417-.169 1.165-.803.793-.172.466.424 1.161-.963.792-.23 1.161-1.096.601.035.96-.363.869 1.042-.213.759.313.395 1.161-.496.745.665.347.366.012.027-.106.241-.132.347-.055-.001-.063.441-.217.447.16-.097.138-.054-.273"/><path fill="#b3b300" stroke="#000" stroke-linecap="round" stroke-linejoin="round" stroke-width="0.176" d="M45.139 13.572q.037.156.043.317c.022.916-.7 1.676-1.615 1.697l-.556.012 4.403 5.938c.776 1.084.026 2.594-1.304 2.625l-3.693.086a1.65 1.65 0 0 1-1.093-.38h0c-.37-.307-.59-.76-.602-1.24a1.654 1.654 0 0 1 1.614-1.696l.563-.014-4.404-5.939c-.78-1.08-.03-2.59 1.298-2.622l3.695-.087c.38-.007.75.116 1.05.35.28.222.488.53.601.953" color="#000" stop-color="#000" style="font-variation-settings:normal;fill:#b3b300;-inkscape-stroke:none"/><path fill="none" stroke="none" stroke-linecap="round" stroke-linejoin="round" d="m43.498 15.652.21.472 1.009.2-.673-.001-.094-1.099-1.146-.476.201-.959.339.762-.996.74-.735-1.024.515-.392-.101 1.14-1.211.069-.208-1.111.649.256-.555 1.119-1.124-.517-.611.759-.781-.906-.262-1.215.48-.24.717.54L39 13.53l1.006-.138-.194 1.005-.065.801 1.232-.002.297.13-.755.997.427.486 1.213-.168-.171.572-.52 1.003.931.069.85-.077-.595.904-.049.784 1.203-.261.33.296-.712 1.04.535.47 1.16-.332-.156.585-.35 1.065.926-.1.815-.255-.355 1.031.178.654 1.133-.508.334.262-.423 1.168.747.129.926-.549.075-.973.182-1.209-.578-.463-1.181.128-.026.389-.991.179-.104 1.204-.212-.378-.894-.781-.529.937.01.711-.519-.939-.946-.139-.207 1.232.007.112-1.162-.204-.887.282-.601-1.064.986-.65.135.731-1.184-.248.165-1.219.994.052-.578.737.613.309.946-.766 1.124.356 1.024-.292 1.038-.098"/><path fill="none" stroke="#000" stroke-linecap="round" stroke-linejoin="round" stroke-width="1.316" d="m44.469 13.537.407-.17.43-.186.256-.235.272-.367.251-.457.255-.459.114-.516.031-.465-.114-.585-.258-.612-.323-.561-.146-.527.075-.483-.031-.326.024-.288.077-.21.057-.261"/><path fill="none" stroke="#b3b300" stroke-linecap="round" stroke-linejoin="round" stroke-width="0.9637" d="m44.122 14.37.347-.833.407-.17.43-.186.256-.235.272-.367.251-.457.255-.459.114-.516.031-.465-.114-.585-.258-.612-.323-.561-.146-.527.075-.483-.031-.326.024-.288.077-.21.057-.261"/><path fill="none" stroke="none" stroke-linecap="round" stroke-linejoin="round" d="m43.755 5.746-.067.131-.166.521.238.354.451.237.4.712.113.257.308 1.062.372 1.003.502-.063.652.328.382.986-.623.586-.861.202-.729.473-.466.451-1.129.459.455 1.155.621-.185-1.001-.521-.641 1.038.932.72.21.472"/></svg>